<svg width="256" height="256" viewBox="0 0 256 256" fill="none" xmlns="http://www.w3.org/2000/svg">
<path d="M249.332 128.001C249.332 195.011 195.009 249.334 127.999 249.334C60.9881 249.334 6.66536 195.011 6.66536 128.001C6.66536 60.9901 60.9881 6.66732 127.999 6.66732C195.009 6.66732 249.332 60.9901 249.332 128.001Z" fill="#061326" stroke="#E7DEDE" stroke-width="2.66667"/>
<path d="M130.227 78.6035V79.666C128.477 79.8743 127.227 80.0618 126.477 80.2285C125.727 80.3535 124.893 80.7702 123.977 81.4785C122.56 82.5618 121.664 83.5827 121.289 84.541C120.956 85.4993 120.747 87.166 120.664 89.541C120.539 89.916 120.539 90.291 120.664 90.666L123.852 159.041C123.935 161.916 124.622 164.395 125.914 166.479C127.206 168.562 130.018 169.624 134.352 169.666V170.666H104.539V169.666C108.456 169.249 111.102 168.124 112.477 166.291C113.852 164.416 114.435 161.52 114.227 157.604L111.039 86.8535H110.789L78.2891 170.666L47.5391 89.916H47.2891L43.9766 155.166C43.8099 158.749 44.0182 161.541 44.6016 163.541C45.2266 165.499 46.2057 166.916 47.5391 167.791C48.8724 168.624 50.8516 169.249 53.4766 169.666V170.666H30.2891V169.666C33.2474 169.624 35.4974 168.916 37.0391 167.541C38.5807 166.166 39.5807 164.458 40.0391 162.416C40.5391 160.333 40.9141 157.499 41.1641 153.916L44.8516 86.416C44.8516 86.166 44.6016 85.7285 44.1016 85.1035C43.6016 84.4368 42.9766 83.791 42.2266 83.166C41.5182 82.4993 40.8307 81.9785 40.1641 81.6035C38.7474 80.7285 37.5182 80.2285 36.4766 80.1035C35.4349 79.9368 33.9766 79.791 32.1016 79.666V78.6035H53.4766L81.9766 153.916L110.914 78.6035H130.227Z" fill="#E7DEDE"/>
<path d="M223.562 78.6035V79.666C221.812 79.8743 220.562 80.0618 219.812 80.2285C219.062 80.3535 218.229 80.7702 217.312 81.4785C215.896 82.5618 215 83.5827 214.625 84.541C214.292 85.4993 214.083 87.166 214 89.541C213.875 89.916 213.875 90.291 214 90.666L217.188 159.041C217.271 161.916 217.958 164.395 219.25 166.479C220.542 168.562 223.354 169.624 227.688 169.666V170.666H197.875V169.666C201.792 169.249 204.438 168.124 205.812 166.291C207.188 164.416 207.771 161.52 207.562 157.604L204.375 86.8535H204.125L171.625 170.666L140.875 89.916H140.625L137.312 155.166C137.146 158.749 137.354 161.541 137.938 163.541C138.562 165.499 139.542 166.916 140.875 167.791C142.208 168.624 144.188 169.249 146.812 169.666V170.666H123.625V169.666C126.583 169.624 128.833 168.916 130.375 167.541C131.917 166.166 132.917 164.458 133.375 162.416C133.875 160.333 134.25 157.499 134.5 153.916L138.188 86.416C138.188 86.166 137.938 85.7285 137.438 85.1035C136.938 84.4368 136.312 83.791 135.562 83.166C134.854 82.4993 134.167 81.9785 133.5 81.6035C132.083 80.7285 130.854 80.2285 129.812 80.1035C128.771 79.9368 127.312 79.791 125.438 79.666V78.6035H146.812L175.312 153.916L204.25 78.6035H223.562Z" fill="#E7DEDE"/>
</svg>
