<svg width="247" height="38" viewBox="0 0 247 38" fill="none" xmlns="http://www.w3.org/2000/svg">
<path d="M17.4609 2.05469L27.7969 31.6328C28.3438 33.1641 28.8594 34.2734 29.3438 34.9609C29.8281 35.6484 30.2891 36.0859 30.7266 36.2734C31.1797 36.4453 31.75 36.5625 32.4375 36.625V37H21.1641V36.625C22.3203 36.625 23.2109 36.5156 23.8359 36.2969C24.4609 36.0781 24.7734 35.4844 24.7734 34.5156C24.7734 33.9844 24.625 33.2734 24.3281 32.3828C24.2656 32.2578 24.2344 32.1641 24.2344 32.1016L21.1641 22.9375H9.21094L6.46875 31.4219C6.09375 32.5781 5.90625 33.5078 5.90625 34.2109C5.90625 35.1797 6.14844 35.8281 6.63281 36.1562C7.11719 36.4688 7.80469 36.625 8.69531 36.625V37H0.585938V36.625C1.74219 36.5156 2.66406 36.0781 3.35156 35.3125C4.05469 34.5312 4.66406 33.3516 5.17969 31.7734L14.9297 2.05469H17.4609ZM9.60938 21.6953H20.6016L14.9766 5.3125H14.8828L9.60938 21.6953Z" fill="white"/>
<path d="M47.6484 37H34.7344V36.625H35.2031C36.0781 36.625 36.8281 36.3125 37.4531 35.6875C38.0938 35.0469 38.4141 34.0938 38.4141 32.8281V6.76562C38.4141 5.53125 38.1172 4.57812 37.5234 3.90625C36.9453 3.21875 36.1562 2.875 35.1562 2.875H34.7344V2.47656H46.0078C47.4922 2.47656 48.8594 2.69531 50.1094 3.13281C51.3594 3.55469 52.4141 4.14844 53.2734 4.91406C54.1484 5.66406 54.8203 6.52344 55.2891 7.49219C55.7578 8.44531 55.9922 9.48438 55.9922 10.6094C55.9922 12.6875 55.3203 14.375 53.9766 15.6719C52.6328 16.9688 50.8281 17.9219 48.5625 18.5312V18.625C49.5938 18.7344 50.5859 18.8984 51.5391 19.1172C52.4922 19.3359 53.3516 19.6406 54.1172 20.0312C54.8828 20.4219 55.6016 20.9297 56.2734 21.5547C56.8828 22.1172 57.3984 22.7344 57.8203 23.4062C58.2422 24.0781 58.5625 24.8125 58.7812 25.6094C59 26.3906 59.1094 27.1953 59.1094 28.0234C59.1094 29.8203 58.6406 31.3672 57.7031 32.6641C56.7812 33.9609 55.7344 34.9453 54.5625 35.6172C52.8906 36.5391 50.5859 37 47.6484 37ZM41.9766 18.3203H44.2266C46.0703 18.3203 47.3828 18.1328 48.1641 17.7578C48.6641 17.5078 49.1797 17.1641 49.7109 16.7266C50.2578 16.2891 50.7734 15.6016 51.2578 14.6641C51.7578 13.7266 52.0078 12.5938 52.0078 11.2656C52.0078 10.2344 51.8438 9.25781 51.5156 8.33594C51.1875 7.39844 50.7109 6.57031 50.0859 5.85156C49.4609 5.13281 48.7188 4.57031 47.8594 4.16406C47 3.75781 46.0625 3.55469 45.0469 3.55469C44.1562 3.55469 43.1328 3.72656 41.9766 4.07031V18.3203ZM45.5156 19.375H41.9766V31.8203C41.9766 32.6484 42.0547 33.3438 42.2109 33.9062C42.3828 34.4531 42.8359 34.9297 43.5703 35.3359C44.3047 35.7422 45.4375 35.9453 46.9688 35.9453C50.1406 35.9453 52.3984 34.8906 53.7422 32.7812C54.6641 31.3281 55.125 29.6953 55.125 27.8828C55.125 26.5703 54.8906 25.3828 54.4219 24.3203C53.9688 23.2578 53.3359 22.375 52.5234 21.6719C51.7266 20.9531 50.7188 20.3906 49.5 19.9844C48.2812 19.5781 46.9531 19.375 45.5156 19.375Z" fill="white"/>
<path d="M99.5391 19.7734C99.5391 23.0078 98.7344 26.0156 97.125 28.7969C95.5312 31.5781 93.3516 33.7969 90.5859 35.4531C87.8203 37.0938 84.7578 37.9141 81.3984 37.9141C78.0234 37.9141 74.9297 37.0938 72.1172 35.4531C69.3047 33.7969 67.0859 31.5703 65.4609 28.7734C63.8516 25.9766 63.0469 22.9297 63.0469 19.6328C63.0469 17.1016 63.5234 14.7266 64.4766 12.5078C65.4453 10.2734 66.7891 8.32812 68.5078 6.67188C70.2422 5.01562 72.2109 3.73438 74.4141 2.82812C76.6328 1.92188 78.9453 1.46875 81.3516 1.46875C83.7109 1.46875 85.9766 1.90625 88.1484 2.78125C90.3203 3.64062 92.2656 4.89062 93.9844 6.53125C95.7188 8.17188 97.0781 10.1172 98.0625 12.3672C99.0469 14.6172 99.5391 17.0859 99.5391 19.7734ZM95.4141 19.8672C95.4141 15.2734 94.6016 11.6797 92.9766 9.08594C91.3516 6.49219 89.4766 4.75781 87.3516 3.88281C85.2266 2.99219 83.2266 2.54688 81.3516 2.54688C79.8984 2.54688 78.3906 2.78906 76.8281 3.27344C75.2656 3.74219 73.7422 4.60938 72.2578 5.875C70.7891 7.14062 69.5781 8.92188 68.625 11.2188C67.6719 13.5156 67.1953 16.3516 67.1953 19.7266C67.1953 22.6953 67.5859 25.2891 68.3672 27.5078C69.1641 29.7109 70.25 31.5156 71.625 32.9219C73.0156 34.3125 74.5391 35.3203 76.1953 35.9453C77.8672 36.5547 79.6016 36.8594 81.3984 36.8594C83.0078 36.8594 84.6328 36.5781 86.2734 36.0156C87.9297 35.4375 89.4375 34.5078 90.7969 33.2266C92.1719 31.9297 93.2812 30.1797 94.125 27.9766C94.9844 25.7578 95.4141 23.0547 95.4141 19.8672Z" fill="white"/>
<path d="M137.906 37H130.664V31.2812L130.547 31.1875C129.547 33.5156 128.047 35.2188 126.047 36.2969C124.062 37.375 121.984 37.9141 119.812 37.9141C117.359 37.9141 115.148 37.3281 113.18 36.1562C111.227 34.9844 109.789 33.5391 108.867 31.8203C108.211 30.6016 107.797 29.3359 107.625 28.0234C107.453 26.6953 107.367 25.3203 107.367 23.8984V6.71875C107.367 5.6875 107.156 4.82031 106.734 4.11719C106.328 3.41406 105.344 3 103.781 2.875V2.47656H114.633V2.875C113.039 3.0625 112.023 3.52344 111.586 4.25781C111.148 4.99219 110.93 5.8125 110.93 6.71875V23.6172C110.93 27.0547 111.281 29.5938 111.984 31.2344C112.734 32.9844 113.859 34.3516 115.359 35.3359C116.859 36.3203 118.562 36.8125 120.469 36.8125C121.266 36.8125 122.211 36.6719 123.305 36.3906C124.398 36.1094 125.422 35.6406 126.375 34.9844C129.234 33.0312 130.664 29.8984 130.664 25.5859V6.71875C130.664 5.76562 130.445 4.92188 130.008 4.1875C129.57 3.45312 128.539 3.01562 126.914 2.875V2.47656H137.953V2.875C136.359 2.95312 135.336 3.39844 134.883 4.21094C134.43 5.02344 134.203 5.84375 134.203 6.67188V32.8281C134.203 33.7344 134.352 34.4531 134.648 34.9844C134.961 35.5 135.383 35.8672 135.914 36.0859C136.461 36.3047 137.125 36.4844 137.906 36.625V37Z" fill="white"/>
<path d="M170.789 9.20312H170.414C170.242 6.95312 169.586 5.5 168.445 4.84375C167.305 4.17188 165.898 3.83594 164.227 3.83594H157.359V32.8281C157.359 35.2812 158.609 36.5469 161.109 36.625V37H150.117V36.625C151.148 36.5938 152.016 36.2969 152.719 35.7344C153.438 35.1562 153.797 34.1875 153.797 32.8281V3.83594H146.93C145.258 3.83594 143.852 4.17188 142.711 4.84375C141.586 5.5 140.93 6.95312 140.742 9.20312H140.367V0.765625H140.742C140.992 1.15625 141.211 1.44531 141.398 1.63281C141.586 1.82031 141.828 1.98438 142.125 2.125C142.422 2.25 142.766 2.34375 143.156 2.40625C143.562 2.45312 144.039 2.47656 144.586 2.47656H166.945C168.43 2.47656 169.586 1.90625 170.414 0.765625H170.789V9.20312Z" fill="white"/>
<path d="M223.453 37H216.211V31.2812L216.094 31.1875C215.094 33.5156 213.594 35.2188 211.594 36.2969C209.609 37.375 207.531 37.9141 205.359 37.9141C202.906 37.9141 200.695 37.3281 198.727 36.1562C196.773 34.9844 195.336 33.5391 194.414 31.8203C193.758 30.6016 193.344 29.3359 193.172 28.0234C193 26.6953 192.914 25.3203 192.914 23.8984V6.71875C192.914 5.6875 192.703 4.82031 192.281 4.11719C191.875 3.41406 190.891 3 189.328 2.875V2.47656H200.18V2.875C198.586 3.0625 197.57 3.52344 197.133 4.25781C196.695 4.99219 196.477 5.8125 196.477 6.71875V23.6172C196.477 27.0547 196.828 29.5938 197.531 31.2344C198.281 32.9844 199.406 34.3516 200.906 35.3359C202.406 36.3203 204.109 36.8125 206.016 36.8125C206.812 36.8125 207.758 36.6719 208.852 36.3906C209.945 36.1094 210.969 35.6406 211.922 34.9844C214.781 33.0312 216.211 29.8984 216.211 25.5859V6.71875C216.211 5.76562 215.992 4.92188 215.555 4.1875C215.117 3.45312 214.086 3.01562 212.461 2.875V2.47656H223.5V2.875C221.906 2.95312 220.883 3.39844 220.43 4.21094C219.977 5.02344 219.75 5.84375 219.75 6.67188V32.8281C219.75 33.7344 219.898 34.4531 220.195 34.9844C220.508 35.5 220.93 35.8672 221.461 36.0859C222.008 36.3047 222.672 36.4844 223.453 36.625V37Z" fill="white"/>
<path d="M244.617 9.10938H244.242C244.023 7.4375 243.289 5.97656 242.039 4.72656C240.805 3.46094 239.172 2.82812 237.141 2.82812C235.812 2.82812 234.633 3.14062 233.602 3.76562C232.57 4.39062 231.773 5.24219 231.211 6.32031C230.648 7.39844 230.367 8.63281 230.367 10.0234C230.367 11.1016 230.531 12.0625 230.859 12.9062C231.203 13.7344 231.703 14.4688 232.359 15.1094C233.016 15.75 233.789 16.3516 234.68 16.9141C235.57 17.4609 236.773 18.1562 238.289 19C240.82 20.3906 242.789 21.7812 244.195 23.1719C245.602 24.5469 246.305 26.4375 246.305 28.8438C246.305 30.3125 245.922 31.7344 245.156 33.1094C244.406 34.4688 243.266 35.5859 241.734 36.4609C240.203 37.3359 238.305 37.7734 236.039 37.7734C234.617 37.7734 233.359 37.6172 232.266 37.3047C231.172 37.0078 230.062 36.5859 228.938 36.0391C228.469 35.8828 228.148 35.8047 227.977 35.8047C227.648 35.8047 227.43 35.9219 227.32 36.1562C227.227 36.3906 227.094 36.8984 226.922 37.6797H226.523V29.0312H226.922C227.484 31.5625 228.578 33.4766 230.203 34.7734C231.828 36.0703 233.805 36.7188 236.133 36.7188C237.883 36.7188 239.281 36.3906 240.328 35.7344C241.391 35.0781 242.125 34.2812 242.531 33.3438C242.938 32.4062 243.141 31.4688 243.141 30.5312C243.141 28.5938 242.547 27.0156 241.359 25.7969C240.188 24.5625 238.398 23.3047 235.992 22.0234C234.336 21.1172 233.109 20.4141 232.312 19.9141C231.516 19.4141 230.703 18.7656 229.875 17.9688C229.062 17.1719 228.414 16.2344 227.93 15.1562C227.445 14.0625 227.203 12.8125 227.203 11.4062C227.203 9.78125 227.633 8.22656 228.492 6.74219C229.352 5.25781 230.57 4.07031 232.148 3.17969C233.727 2.27344 235.516 1.82031 237.516 1.82031C239.031 1.82031 240.586 2.07812 242.18 2.59375C242.43 2.71875 242.766 2.78125 243.188 2.78125C243.703 2.78125 244.055 2.42969 244.242 1.72656H244.617V9.10938Z" fill="white"/>
</svg>
