<svg width="315" height="38" viewBox="0 0 315 38" fill="none" xmlns="http://www.w3.org/2000/svg">
<path d="M30.8828 10.2109H30.4844C30.1875 8.52344 29.3906 7.09375 28.0938 5.92188C26.8125 4.75 25.3359 3.89844 23.6641 3.36719C21.9922 2.82031 20.4297 2.54688 18.9766 2.54688C16.9922 2.54688 15.125 2.96875 13.375 3.8125C11.6406 4.64062 10.1406 5.82031 8.875 7.35156C7.60938 8.86719 6.625 10.6953 5.92188 12.8359C5.21875 14.9609 4.86719 17.2734 4.86719 19.7734C4.86719 22.1953 5.20312 24.4453 5.875 26.5234C6.5625 28.5859 7.55469 30.3828 8.85156 31.9141C10.1641 33.4297 11.6797 34.5781 13.3984 35.3594C15.1172 36.1406 17.0234 36.5312 19.1172 36.5312C20.8672 36.5312 22.7891 36.1797 24.8828 35.4766C26.9766 34.7578 28.8672 33.5703 30.5547 31.9141V33.25C28.4766 34.8594 26.5703 36.0391 24.8359 36.7891C23.1172 37.5391 20.9688 37.9141 18.3906 37.9141C15.6719 37.9141 13.1875 37.4219 10.9375 36.4375C8.70312 35.4375 6.8125 34.0938 5.26562 32.4062C3.71875 30.7188 2.54688 28.8203 1.75 26.7109C0.953125 24.6016 0.554688 22.4297 0.554688 20.1953C0.554688 16.8359 1.38281 13.7188 3.03906 10.8438C4.69531 7.95312 6.9375 5.67188 9.76562 4C12.5938 2.3125 15.6641 1.46875 18.9766 1.46875C21.0234 1.46875 23.2031 1.77344 25.5156 2.38281L27.9531 3.0625C28.4219 3.15625 28.8203 3.20312 29.1484 3.20312C29.7578 3.20312 30.1641 3.11719 30.3672 2.94531C30.5703 2.75781 30.7266 2.42969 30.8359 1.96094H31.2109L30.8828 10.2109Z" fill="white"/>
<path d="M71.5234 19.7734C71.5234 23.0078 70.7188 26.0156 69.1094 28.7969C67.5156 31.5781 65.3359 33.7969 62.5703 35.4531C59.8047 37.0938 56.7422 37.9141 53.3828 37.9141C50.0078 37.9141 46.9141 37.0938 44.1016 35.4531C41.2891 33.7969 39.0703 31.5703 37.4453 28.7734C35.8359 25.9766 35.0312 22.9297 35.0312 19.6328C35.0312 17.1016 35.5078 14.7266 36.4609 12.5078C37.4297 10.2734 38.7734 8.32812 40.4922 6.67188C42.2266 5.01562 44.1953 3.73438 46.3984 2.82812C48.6172 1.92188 50.9297 1.46875 53.3359 1.46875C55.6953 1.46875 57.9609 1.90625 60.1328 2.78125C62.3047 3.64062 64.25 4.89062 65.9688 6.53125C67.7031 8.17188 69.0625 10.1172 70.0469 12.3672C71.0312 14.6172 71.5234 17.0859 71.5234 19.7734ZM67.3984 19.8672C67.3984 15.2734 66.5859 11.6797 64.9609 9.08594C63.3359 6.49219 61.4609 4.75781 59.3359 3.88281C57.2109 2.99219 55.2109 2.54688 53.3359 2.54688C51.8828 2.54688 50.375 2.78906 48.8125 3.27344C47.25 3.74219 45.7266 4.60938 44.2422 5.875C42.7734 7.14062 41.5625 8.92188 40.6094 11.2188C39.6562 13.5156 39.1797 16.3516 39.1797 19.7266C39.1797 22.6953 39.5703 25.2891 40.3516 27.5078C41.1484 29.7109 42.2344 31.5156 43.6094 32.9219C45 34.3125 46.5234 35.3203 48.1797 35.9453C49.8516 36.5547 51.5859 36.8594 53.3828 36.8594C54.9922 36.8594 56.6172 36.5781 58.2578 36.0156C59.9141 35.4375 61.4219 34.5078 62.7812 33.2266C64.1562 31.9297 65.2656 30.1797 66.1094 27.9766C66.9688 25.7578 67.3984 23.0547 67.3984 19.8672Z" fill="white"/>
<path d="M111.555 2.47656V2.875C110.68 2.98438 109.984 3.15625 109.469 3.39062C108.969 3.60938 108.578 4.05469 108.297 4.72656C108.016 5.38281 107.875 6.33594 107.875 7.58594V37.8672H107.641L81.1328 8.28906V29.5234C81.1328 31.2891 81.2031 32.6016 81.3438 33.4609C81.4844 34.3203 81.6875 34.9375 81.9531 35.3125C82.5312 36.125 83.5391 36.5625 84.9766 36.625V37H76.3281V36.625C77.2969 36.5781 78.0469 36.375 78.5781 36.0156C79.125 35.6406 79.5078 34.9688 79.7266 34C79.9609 33.0156 80.0781 31.5391 80.0781 29.5703V7.04688L78.9297 5.75781C77.9141 4.60156 77.1016 3.875 76.4922 3.57812C75.8828 3.26562 75.125 3.03125 74.2188 2.875V2.47656H80.7109L106.82 31.7266V9.4375C106.82 7.76562 106.75 6.51562 106.609 5.6875C106.484 4.85938 106.133 4.19531 105.555 3.69531C104.992 3.19531 104.102 2.92188 102.883 2.875V2.47656H111.555Z" fill="white"/>
<path d="M144.32 9.20312H143.945C143.773 6.95312 143.117 5.5 141.977 4.84375C140.836 4.17188 139.43 3.83594 137.758 3.83594H130.891V32.8281C130.891 35.2812 132.141 36.5469 134.641 36.625V37H123.648V36.625C124.68 36.5938 125.547 36.2969 126.25 35.7344C126.969 35.1562 127.328 34.1875 127.328 32.8281V3.83594H120.461C118.789 3.83594 117.383 4.17188 116.242 4.84375C115.117 5.5 114.461 6.95312 114.273 9.20312H113.898V0.765625H114.273C114.523 1.15625 114.742 1.44531 114.93 1.63281C115.117 1.82031 115.359 1.98438 115.656 2.125C115.953 2.25 116.297 2.34375 116.688 2.40625C117.094 2.45312 117.57 2.47656 118.117 2.47656H140.477C141.961 2.47656 143.117 1.90625 143.945 0.765625H144.32V9.20312Z" fill="white"/>
<path d="M160.492 2.05469L170.828 31.6328C171.375 33.1641 171.891 34.2734 172.375 34.9609C172.859 35.6484 173.32 36.0859 173.758 36.2734C174.211 36.4453 174.781 36.5625 175.469 36.625V37H164.195V36.625C165.352 36.625 166.242 36.5156 166.867 36.2969C167.492 36.0781 167.805 35.4844 167.805 34.5156C167.805 33.9844 167.656 33.2734 167.359 32.3828C167.297 32.2578 167.266 32.1641 167.266 32.1016L164.195 22.9375H152.242L149.5 31.4219C149.125 32.5781 148.938 33.5078 148.938 34.2109C148.938 35.1797 149.18 35.8281 149.664 36.1562C150.148 36.4688 150.836 36.625 151.727 36.625V37H143.617V36.625C144.773 36.5156 145.695 36.0781 146.383 35.3125C147.086 34.5312 147.695 33.3516 148.211 31.7734L157.961 2.05469H160.492ZM152.641 21.6953H163.633L158.008 5.3125H157.914L152.641 21.6953Z" fill="white"/>
<path d="M206.195 10.2109H205.797C205.5 8.52344 204.703 7.09375 203.406 5.92188C202.125 4.75 200.648 3.89844 198.977 3.36719C197.305 2.82031 195.742 2.54688 194.289 2.54688C192.305 2.54688 190.438 2.96875 188.688 3.8125C186.953 4.64062 185.453 5.82031 184.188 7.35156C182.922 8.86719 181.938 10.6953 181.234 12.8359C180.531 14.9609 180.18 17.2734 180.18 19.7734C180.18 22.1953 180.516 24.4453 181.188 26.5234C181.875 28.5859 182.867 30.3828 184.164 31.9141C185.477 33.4297 186.992 34.5781 188.711 35.3594C190.43 36.1406 192.336 36.5312 194.43 36.5312C196.18 36.5312 198.102 36.1797 200.195 35.4766C202.289 34.7578 204.18 33.5703 205.867 31.9141V33.25C203.789 34.8594 201.883 36.0391 200.148 36.7891C198.43 37.5391 196.281 37.9141 193.703 37.9141C190.984 37.9141 188.5 37.4219 186.25 36.4375C184.016 35.4375 182.125 34.0938 180.578 32.4062C179.031 30.7188 177.859 28.8203 177.062 26.7109C176.266 24.6016 175.867 22.4297 175.867 20.1953C175.867 16.8359 176.695 13.7188 178.352 10.8438C180.008 7.95312 182.25 5.67188 185.078 4C187.906 2.3125 190.977 1.46875 194.289 1.46875C196.336 1.46875 198.516 1.77344 200.828 2.38281L203.266 3.0625C203.734 3.15625 204.133 3.20312 204.461 3.20312C205.07 3.20312 205.477 3.11719 205.68 2.94531C205.883 2.75781 206.039 2.42969 206.148 1.96094H206.523L206.195 10.2109Z" fill="white"/>
<path d="M239.055 9.20312H238.68C238.508 6.95312 237.852 5.5 236.711 4.84375C235.57 4.17188 234.164 3.83594 232.492 3.83594H225.625V32.8281C225.625 35.2812 226.875 36.5469 229.375 36.625V37H218.383V36.625C219.414 36.5938 220.281 36.2969 220.984 35.7344C221.703 35.1562 222.062 34.1875 222.062 32.8281V3.83594H215.195C213.523 3.83594 212.117 4.17188 210.977 4.84375C209.852 5.5 209.195 6.95312 209.008 9.20312H208.633V0.765625H209.008C209.258 1.15625 209.477 1.44531 209.664 1.63281C209.852 1.82031 210.094 1.98438 210.391 2.125C210.688 2.25 211.031 2.34375 211.422 2.40625C211.828 2.45312 212.305 2.47656 212.852 2.47656H235.211C236.695 2.47656 237.852 1.90625 238.68 0.765625H239.055V9.20312Z" fill="white"/>
<path d="M291.719 37H284.477V31.2812L284.359 31.1875C283.359 33.5156 281.859 35.2188 279.859 36.2969C277.875 37.375 275.797 37.9141 273.625 37.9141C271.172 37.9141 268.961 37.3281 266.992 36.1562C265.039 34.9844 263.602 33.5391 262.68 31.8203C262.023 30.6016 261.609 29.3359 261.438 28.0234C261.266 26.6953 261.18 25.3203 261.18 23.8984V6.71875C261.18 5.6875 260.969 4.82031 260.547 4.11719C260.141 3.41406 259.156 3 257.594 2.875V2.47656H268.445V2.875C266.852 3.0625 265.836 3.52344 265.398 4.25781C264.961 4.99219 264.742 5.8125 264.742 6.71875V23.6172C264.742 27.0547 265.094 29.5938 265.797 31.2344C266.547 32.9844 267.672 34.3516 269.172 35.3359C270.672 36.3203 272.375 36.8125 274.281 36.8125C275.078 36.8125 276.023 36.6719 277.117 36.3906C278.211 36.1094 279.234 35.6406 280.188 34.9844C283.047 33.0312 284.477 29.8984 284.477 25.5859V6.71875C284.477 5.76562 284.258 4.92188 283.82 4.1875C283.383 3.45312 282.352 3.01562 280.727 2.875V2.47656H291.766V2.875C290.172 2.95312 289.148 3.39844 288.695 4.21094C288.242 5.02344 288.016 5.84375 288.016 6.67188V32.8281C288.016 33.7344 288.164 34.4531 288.461 34.9844C288.773 35.5 289.195 35.8672 289.727 36.0859C290.273 36.3047 290.938 36.4844 291.719 36.625V37Z" fill="white"/>
<path d="M312.883 9.10938H312.508C312.289 7.4375 311.555 5.97656 310.305 4.72656C309.07 3.46094 307.438 2.82812 305.406 2.82812C304.078 2.82812 302.898 3.14062 301.867 3.76562C300.836 4.39062 300.039 5.24219 299.477 6.32031C298.914 7.39844 298.633 8.63281 298.633 10.0234C298.633 11.1016 298.797 12.0625 299.125 12.9062C299.469 13.7344 299.969 14.4688 300.625 15.1094C301.281 15.75 302.055 16.3516 302.945 16.9141C303.836 17.4609 305.039 18.1562 306.555 19C309.086 20.3906 311.055 21.7812 312.461 23.1719C313.867 24.5469 314.57 26.4375 314.57 28.8438C314.57 30.3125 314.188 31.7344 313.422 33.1094C312.672 34.4688 311.531 35.5859 310 36.4609C308.469 37.3359 306.57 37.7734 304.305 37.7734C302.883 37.7734 301.625 37.6172 300.531 37.3047C299.438 37.0078 298.328 36.5859 297.203 36.0391C296.734 35.8828 296.414 35.8047 296.242 35.8047C295.914 35.8047 295.695 35.9219 295.586 36.1562C295.492 36.3906 295.359 36.8984 295.188 37.6797H294.789V29.0312H295.188C295.75 31.5625 296.844 33.4766 298.469 34.7734C300.094 36.0703 302.07 36.7188 304.398 36.7188C306.148 36.7188 307.547 36.3906 308.594 35.7344C309.656 35.0781 310.391 34.2812 310.797 33.3438C311.203 32.4062 311.406 31.4688 311.406 30.5312C311.406 28.5938 310.812 27.0156 309.625 25.7969C308.453 24.5625 306.664 23.3047 304.258 22.0234C302.602 21.1172 301.375 20.4141 300.578 19.9141C299.781 19.4141 298.969 18.7656 298.141 17.9688C297.328 17.1719 296.68 16.2344 296.195 15.1562C295.711 14.0625 295.469 12.8125 295.469 11.4062C295.469 9.78125 295.898 8.22656 296.758 6.74219C297.617 5.25781 298.836 4.07031 300.414 3.17969C301.992 2.27344 303.781 1.82031 305.781 1.82031C307.297 1.82031 308.852 2.07812 310.445 2.59375C310.695 2.71875 311.031 2.78125 311.453 2.78125C311.969 2.78125 312.32 2.42969 312.508 1.72656H312.883V9.10938Z" fill="white"/>
</svg>
