<svg width="550" height="37" viewBox="0 0 550 37" fill="none" xmlns="http://www.w3.org/2000/svg">
<path d="M37.4766 1.00781V1.40625C36.8203 1.48438 36.3516 1.55469 36.0703 1.61719C35.7891 1.66406 35.4766 1.82031 35.1328 2.08594C34.6016 2.49219 34.2656 2.875 34.125 3.23438C34 3.59375 33.9219 4.21875 33.8906 5.10938C33.8438 5.25 33.8438 5.39062 33.8906 5.53125L35.0859 31.1719C35.1172 32.25 35.375 33.1797 35.8594 33.9609C36.3438 34.7422 37.3984 35.1406 39.0234 35.1562V35.5312H27.8438V35.1562C29.3125 35 30.3047 34.5781 30.8203 33.8906C31.3359 33.1875 31.5547 32.1016 31.4766 30.6328L30.2812 4.10156H30.1875L18 35.5312L6.46875 5.25H6.375L5.13281 29.7188C5.07031 31.0625 5.14844 32.1094 5.36719 32.8594C5.60156 33.5938 5.96875 34.125 6.46875 34.4531C6.96875 34.7656 7.71094 35 8.69531 35.1562V35.5312H0V35.1562C1.10938 35.1406 1.95312 34.875 2.53125 34.3594C3.10938 33.8438 3.48438 33.2031 3.65625 32.4375C3.84375 31.6562 3.98438 30.5938 4.07812 29.25L5.46094 3.9375C5.46094 3.84375 5.36719 3.67969 5.17969 3.44531C4.99219 3.19531 4.75781 2.95312 4.47656 2.71875C4.21094 2.46875 3.95312 2.27344 3.70312 2.13281C3.17188 1.80469 2.71094 1.61719 2.32031 1.57031C1.92969 1.50781 1.38281 1.45312 0.679688 1.40625V1.00781H8.69531L19.3828 29.25L30.2344 1.00781H37.4766Z" fill="white"/>
<path d="M57.6094 0.585938L67.9453 30.1641C68.4922 31.6953 69.0078 32.8047 69.4922 33.4922C69.9766 34.1797 70.4375 34.6172 70.875 34.8047C71.3281 34.9766 71.8984 35.0938 72.5859 35.1562V35.5312H61.3125V35.1562C62.4688 35.1562 63.3594 35.0469 63.9844 34.8281C64.6094 34.6094 64.9219 34.0156 64.9219 33.0469C64.9219 32.5156 64.7734 31.8047 64.4766 30.9141C64.4141 30.7891 64.3828 30.6953 64.3828 30.6328L61.3125 21.4688H49.3594L46.6172 29.9531C46.2422 31.1094 46.0547 32.0391 46.0547 32.7422C46.0547 33.7109 46.2969 34.3594 46.7812 34.6875C47.2656 35 47.9531 35.1562 48.8438 35.1562V35.5312H40.7344V35.1562C41.8906 35.0469 42.8125 34.6094 43.5 33.8438C44.2031 33.0625 44.8125 31.8828 45.3281 30.3047L55.0781 0.585938H57.6094ZM49.7578 20.2266H60.75L55.125 3.84375H55.0312L49.7578 20.2266Z" fill="white"/>
<path d="M75.3047 1.5H74.8359V1.00781H86.7891C88.7109 1.00781 90.3359 1.30469 91.6641 1.89844C93.0078 2.49219 94.0469 3.25 94.7812 4.17188C95.5312 5.07812 96.0625 6.03906 96.375 7.05469C96.7031 8.07031 96.8672 9.07031 96.8672 10.0547C96.8672 11.3047 96.6016 12.5078 96.0703 13.6641C95.5547 14.8047 94.75 15.7891 93.6562 16.6172C92.5781 17.4453 91.2266 18.0078 89.6016 18.3047V18.3984C91.6641 19.3984 93.5703 21.3828 95.3203 24.3516L98.4375 29.625C99.8438 31.9844 100.969 33.4766 101.812 34.1016C102.672 34.7266 103.516 35.0781 104.344 35.1562V35.5312H98.0625C97.7969 35.1875 97.5469 34.8594 97.3125 34.5469C97.0781 34.2188 96.8281 33.875 96.5625 33.5156C96.4062 33.2812 96.1719 32.9297 95.8594 32.4609C95.5625 31.9766 95.3828 31.7031 95.3203 31.6406L91.1953 24.8203C90.3672 23.4297 89.5156 22.3047 88.6406 21.4453C87.7812 20.5703 86.9766 19.9453 86.2266 19.5703C85.4766 19.1953 84.7969 18.9609 84.1875 18.8672C83.5938 18.7734 82.8906 18.7266 82.0781 18.7266V31.3594C82.0781 33.8125 83.3281 35.0781 85.8281 35.1562V35.5312H74.8359V35.1562C75.5234 35.125 76.1328 35 76.6641 34.7812C77.1953 34.5469 77.6328 34.1562 77.9766 33.6094C78.3359 33.0469 78.5156 32.2969 78.5156 31.3594V5.25C78.5156 3.875 78.1797 2.90625 77.5078 2.34375C76.8359 1.78125 76.1016 1.5 75.3047 1.5ZM82.0781 17.8125H84.0469C86.1094 17.8125 87.7969 17.5156 89.1094 16.9219C90.4375 16.3281 91.3984 15.4844 91.9922 14.3906C92.5859 13.2812 92.8828 11.9297 92.8828 10.3359C92.8828 9.00781 92.6172 7.71094 92.0859 6.44531C91.5547 5.16406 90.6484 4.09375 89.3672 3.23438C88.1016 2.35938 86.3906 1.92188 84.2344 1.92188C83.3594 1.92188 82.6406 1.99219 82.0781 2.13281V17.8125Z" fill="white"/>
<path d="M134.859 8.74219H134.461C134.164 7.05469 133.367 5.625 132.07 4.45312C130.789 3.28125 129.312 2.42969 127.641 1.89844C125.969 1.35156 124.406 1.07812 122.953 1.07812C120.969 1.07812 119.102 1.5 117.352 2.34375C115.617 3.17188 114.117 4.35156 112.852 5.88281C111.586 7.39844 110.602 9.22656 109.898 11.3672C109.195 13.4922 108.844 15.8047 108.844 18.3047C108.844 20.7266 109.18 22.9766 109.852 25.0547C110.539 27.1172 111.531 28.9141 112.828 30.4453C114.141 31.9609 115.656 33.1094 117.375 33.8906C119.094 34.6719 121 35.0625 123.094 35.0625C124.844 35.0625 126.766 34.7109 128.859 34.0078C130.953 33.2891 132.844 32.1016 134.531 30.4453V31.7812C132.453 33.3906 130.547 34.5703 128.812 35.3203C127.094 36.0703 124.945 36.4453 122.367 36.4453C119.648 36.4453 117.164 35.9531 114.914 34.9688C112.68 33.9688 110.789 32.625 109.242 30.9375C107.695 29.25 106.523 27.3516 105.727 25.2422C104.93 23.1328 104.531 20.9609 104.531 18.7266C104.531 15.3672 105.359 12.25 107.016 9.375C108.672 6.48438 110.914 4.20312 113.742 2.53125C116.57 0.84375 119.641 0 122.953 0C125 0 127.18 0.304688 129.492 0.914062L131.93 1.59375C132.398 1.6875 132.797 1.73438 133.125 1.73438C133.734 1.73438 134.141 1.64844 134.344 1.47656C134.547 1.28906 134.703 0.960938 134.812 0.492188H135.188L134.859 8.74219Z" fill="white"/>
<path d="M165.188 16.8047V5.25C165.188 4.125 164.883 3.20312 164.273 2.48438C163.664 1.76562 162.719 1.40625 161.438 1.40625V1.00781H172.43V1.40625C171.148 1.40625 170.211 1.76562 169.617 2.48438C169.023 3.1875 168.727 4.10938 168.727 5.25V31.3594C168.727 33.8906 169.961 35.1562 172.43 35.1562V35.5312H161.438V35.1562C162.609 35.1562 163.523 34.8438 164.18 34.2188C164.852 33.5781 165.188 32.6406 165.188 31.4062V17.8594H145.406V31.3594C145.406 32.5625 145.742 33.5 146.414 34.1719C147.102 34.8281 148.016 35.1562 149.156 35.1562V35.5312H138.164V35.1562C139.352 35.1562 140.258 34.8281 140.883 34.1719C141.523 33.5 141.844 32.5625 141.844 31.3594V5.25C141.844 2.6875 140.617 1.40625 138.164 1.40625V1.00781H149.156V1.40625C147.859 1.40625 146.906 1.76562 146.297 2.48438C145.703 3.1875 145.406 4.10938 145.406 5.25V16.8047H165.188Z" fill="white"/>
<path d="M175.711 1.40625V1.00781H196.289V6.44531H195.961C195.961 3.53906 194.023 2.08594 190.148 2.08594H182.953V17.7656H189.281C190.531 17.7656 191.648 17.5625 192.633 17.1562C193.617 16.75 194.18 15.8203 194.32 14.3672H194.672V22.1953H194.32C194.18 21.3047 193.914 20.625 193.523 20.1562C193.133 19.6719 192.742 19.3516 192.352 19.1953C191.977 19.0391 191.641 18.9609 191.344 18.9609C190.781 18.8672 190.195 18.8203 189.586 18.8203H182.953V31.0781C182.953 32 183.125 32.7969 183.469 33.4688C183.828 34.1406 184.648 34.4766 185.93 34.4766H191.062C192.297 34.4766 193.312 34.2969 194.109 33.9375C194.906 33.5781 195.531 33.0781 195.984 32.4375C196.453 31.7969 196.844 31.0234 197.156 30.1172H197.484L196.289 35.5312H175.711V35.1562H176.18C176.914 35.1562 177.633 34.8594 178.336 34.2656C179.039 33.6719 179.391 32.7031 179.391 31.3594V5.34375C179.391 4.28125 179.148 3.35938 178.664 2.57812C178.195 1.79688 177.367 1.40625 176.18 1.40625H175.711Z" fill="white"/>
<path d="M217.969 7.64062H217.594C217.375 5.96875 216.641 4.50781 215.391 3.25781C214.156 1.99219 212.523 1.35938 210.492 1.35938C209.164 1.35938 207.984 1.67188 206.953 2.29688C205.922 2.92188 205.125 3.77344 204.562 4.85156C204 5.92969 203.719 7.16406 203.719 8.55469C203.719 9.63281 203.883 10.5938 204.211 11.4375C204.555 12.2656 205.055 13 205.711 13.6406C206.367 14.2812 207.141 14.8828 208.031 15.4453C208.922 15.9922 210.125 16.6875 211.641 17.5312C214.172 18.9219 216.141 20.3125 217.547 21.7031C218.953 23.0781 219.656 24.9688 219.656 27.375C219.656 28.8438 219.273 30.2656 218.508 31.6406C217.758 33 216.617 34.1172 215.086 34.9922C213.555 35.8672 211.656 36.3047 209.391 36.3047C207.969 36.3047 206.711 36.1484 205.617 35.8359C204.523 35.5391 203.414 35.1172 202.289 34.5703C201.82 34.4141 201.5 34.3359 201.328 34.3359C201 34.3359 200.781 34.4531 200.672 34.6875C200.578 34.9219 200.445 35.4297 200.273 36.2109H199.875V27.5625H200.273C200.836 30.0938 201.93 32.0078 203.555 33.3047C205.18 34.6016 207.156 35.25 209.484 35.25C211.234 35.25 212.633 34.9219 213.68 34.2656C214.742 33.6094 215.477 32.8125 215.883 31.875C216.289 30.9375 216.492 30 216.492 29.0625C216.492 27.125 215.898 25.5469 214.711 24.3281C213.539 23.0938 211.75 21.8359 209.344 20.5547C207.688 19.6484 206.461 18.9453 205.664 18.4453C204.867 17.9453 204.055 17.2969 203.227 16.5C202.414 15.7031 201.766 14.7656 201.281 13.6875C200.797 12.5938 200.555 11.3438 200.555 9.9375C200.555 8.3125 200.984 6.75781 201.844 5.27344C202.703 3.78906 203.922 2.60156 205.5 1.71094C207.078 0.804688 208.867 0.351562 210.867 0.351562C212.383 0.351562 213.938 0.609375 215.531 1.125C215.781 1.25 216.117 1.3125 216.539 1.3125C217.055 1.3125 217.406 0.960938 217.594 0.257812H217.969V7.64062Z" fill="white"/>
<path d="M275.414 1.00781V1.40625C274.758 1.48438 274.289 1.55469 274.008 1.61719C273.727 1.66406 273.414 1.82031 273.07 2.08594C272.539 2.49219 272.203 2.875 272.062 3.23438C271.938 3.59375 271.859 4.21875 271.828 5.10938C271.781 5.25 271.781 5.39062 271.828 5.53125L273.023 31.1719C273.055 32.25 273.312 33.1797 273.797 33.9609C274.281 34.7422 275.336 35.1406 276.961 35.1562V35.5312H265.781V35.1562C267.25 35 268.242 34.5781 268.758 33.8906C269.273 33.1875 269.492 32.1016 269.414 30.6328L268.219 4.10156H268.125L255.938 35.5312L244.406 5.25H244.312L243.07 29.7188C243.008 31.0625 243.086 32.1094 243.305 32.8594C243.539 33.5938 243.906 34.125 244.406 34.4531C244.906 34.7656 245.648 35 246.633 35.1562V35.5312H237.938V35.1562C239.047 35.1406 239.891 34.875 240.469 34.3594C241.047 33.8438 241.422 33.2031 241.594 32.4375C241.781 31.6562 241.922 30.5938 242.016 29.25L243.398 3.9375C243.398 3.84375 243.305 3.67969 243.117 3.44531C242.93 3.19531 242.695 2.95312 242.414 2.71875C242.148 2.46875 241.891 2.27344 241.641 2.13281C241.109 1.80469 240.648 1.61719 240.258 1.57031C239.867 1.50781 239.32 1.45312 238.617 1.40625V1.00781H246.633L257.32 29.25L268.172 1.00781H275.414Z" fill="white"/>
<path d="M313.898 35.5312H306.656V29.8125L306.539 29.7188C305.539 32.0469 304.039 33.75 302.039 34.8281C300.055 35.9062 297.977 36.4453 295.805 36.4453C293.352 36.4453 291.141 35.8594 289.172 34.6875C287.219 33.5156 285.781 32.0703 284.859 30.3516C284.203 29.1328 283.789 27.8672 283.617 26.5547C283.445 25.2266 283.359 23.8516 283.359 22.4297V5.25C283.359 4.21875 283.148 3.35156 282.727 2.64844C282.32 1.94531 281.336 1.53125 279.773 1.40625V1.00781H290.625V1.40625C289.031 1.59375 288.016 2.05469 287.578 2.78906C287.141 3.52344 286.922 4.34375 286.922 5.25V22.1484C286.922 25.5859 287.273 28.125 287.977 29.7656C288.727 31.5156 289.852 32.8828 291.352 33.8672C292.852 34.8516 294.555 35.3438 296.461 35.3438C297.258 35.3438 298.203 35.2031 299.297 34.9219C300.391 34.6406 301.414 34.1719 302.367 33.5156C305.227 31.5625 306.656 28.4297 306.656 24.1172V5.25C306.656 4.29688 306.438 3.45312 306 2.71875C305.562 1.98438 304.531 1.54688 302.906 1.40625V1.00781H313.945V1.40625C312.352 1.48438 311.328 1.92969 310.875 2.74219C310.422 3.55469 310.195 4.375 310.195 5.20312V31.3594C310.195 32.2656 310.344 32.9844 310.641 33.5156C310.953 34.0312 311.375 34.3984 311.906 34.6172C312.453 34.8359 313.117 35.0156 313.898 35.1562V35.5312Z" fill="white"/>
<path d="M335.062 7.64062H334.688C334.469 5.96875 333.734 4.50781 332.484 3.25781C331.25 1.99219 329.617 1.35938 327.586 1.35938C326.258 1.35938 325.078 1.67188 324.047 2.29688C323.016 2.92188 322.219 3.77344 321.656 4.85156C321.094 5.92969 320.812 7.16406 320.812 8.55469C320.812 9.63281 320.977 10.5938 321.305 11.4375C321.648 12.2656 322.148 13 322.805 13.6406C323.461 14.2812 324.234 14.8828 325.125 15.4453C326.016 15.9922 327.219 16.6875 328.734 17.5312C331.266 18.9219 333.234 20.3125 334.641 21.7031C336.047 23.0781 336.75 24.9688 336.75 27.375C336.75 28.8438 336.367 30.2656 335.602 31.6406C334.852 33 333.711 34.1172 332.18 34.9922C330.648 35.8672 328.75 36.3047 326.484 36.3047C325.062 36.3047 323.805 36.1484 322.711 35.8359C321.617 35.5391 320.508 35.1172 319.383 34.5703C318.914 34.4141 318.594 34.3359 318.422 34.3359C318.094 34.3359 317.875 34.4531 317.766 34.6875C317.672 34.9219 317.539 35.4297 317.367 36.2109H316.969V27.5625H317.367C317.93 30.0938 319.023 32.0078 320.648 33.3047C322.273 34.6016 324.25 35.25 326.578 35.25C328.328 35.25 329.727 34.9219 330.773 34.2656C331.836 33.6094 332.57 32.8125 332.977 31.875C333.383 30.9375 333.586 30 333.586 29.0625C333.586 27.125 332.992 25.5469 331.805 24.3281C330.633 23.0938 328.844 21.8359 326.438 20.5547C324.781 19.6484 323.555 18.9453 322.758 18.4453C321.961 17.9453 321.148 17.2969 320.32 16.5C319.508 15.7031 318.859 14.7656 318.375 13.6875C317.891 12.5938 317.648 11.3438 317.648 9.9375C317.648 8.3125 318.078 6.75781 318.938 5.27344C319.797 3.78906 321.016 2.60156 322.594 1.71094C324.172 0.804688 325.961 0.351562 327.961 0.351562C329.477 0.351562 331.031 0.609375 332.625 1.125C332.875 1.25 333.211 1.3125 333.633 1.3125C334.148 1.3125 334.5 0.960938 334.688 0.257812H335.062V7.64062Z" fill="white"/>
<path d="M366.797 16.8047V5.25C366.797 4.125 366.492 3.20312 365.883 2.48438C365.273 1.76562 364.328 1.40625 363.047 1.40625V1.00781H374.039V1.40625C372.758 1.40625 371.82 1.76562 371.227 2.48438C370.633 3.1875 370.336 4.10938 370.336 5.25V31.3594C370.336 33.8906 371.57 35.1562 374.039 35.1562V35.5312H363.047V35.1562C364.219 35.1562 365.133 34.8438 365.789 34.2188C366.461 33.5781 366.797 32.6406 366.797 31.4062V17.8594H347.016V31.3594C347.016 32.5625 347.352 33.5 348.023 34.1719C348.711 34.8281 349.625 35.1562 350.766 35.1562V35.5312H339.773V35.1562C340.961 35.1562 341.867 34.8281 342.492 34.1719C343.133 33.5 343.453 32.5625 343.453 31.3594V5.25C343.453 2.6875 342.227 1.40625 339.773 1.40625V1.00781H350.766V1.40625C349.469 1.40625 348.516 1.76562 347.906 2.48438C347.312 3.1875 347.016 4.10938 347.016 5.25V16.8047H366.797Z" fill="white"/>
<path d="M377.742 1.5H377.273V1.00781H389.227C391.148 1.00781 392.773 1.30469 394.102 1.89844C395.445 2.49219 396.484 3.25 397.219 4.17188C397.969 5.07812 398.5 6.03906 398.812 7.05469C399.141 8.07031 399.305 9.07031 399.305 10.0547C399.305 11.3047 399.039 12.5078 398.508 13.6641C397.992 14.8047 397.188 15.7891 396.094 16.6172C395.016 17.4453 393.664 18.0078 392.039 18.3047V18.3984C394.102 19.3984 396.008 21.3828 397.758 24.3516L400.875 29.625C402.281 31.9844 403.406 33.4766 404.25 34.1016C405.109 34.7266 405.953 35.0781 406.781 35.1562V35.5312H400.5C400.234 35.1875 399.984 34.8594 399.75 34.5469C399.516 34.2188 399.266 33.875 399 33.5156C398.844 33.2812 398.609 32.9297 398.297 32.4609C398 31.9766 397.82 31.7031 397.758 31.6406L393.633 24.8203C392.805 23.4297 391.953 22.3047 391.078 21.4453C390.219 20.5703 389.414 19.9453 388.664 19.5703C387.914 19.1953 387.234 18.9609 386.625 18.8672C386.031 18.7734 385.328 18.7266 384.516 18.7266V31.3594C384.516 33.8125 385.766 35.0781 388.266 35.1562V35.5312H377.273V35.1562C377.961 35.125 378.57 35 379.102 34.7812C379.633 34.5469 380.07 34.1562 380.414 33.6094C380.773 33.0469 380.953 32.2969 380.953 31.3594V5.25C380.953 3.875 380.617 2.90625 379.945 2.34375C379.273 1.78125 378.539 1.5 377.742 1.5ZM384.516 17.8125H386.484C388.547 17.8125 390.234 17.5156 391.547 16.9219C392.875 16.3281 393.836 15.4844 394.43 14.3906C395.023 13.2812 395.32 11.9297 395.32 10.3359C395.32 9.00781 395.055 7.71094 394.523 6.44531C393.992 5.16406 393.086 4.09375 391.805 3.23438C390.539 2.35938 388.828 1.92188 386.672 1.92188C385.797 1.92188 385.078 1.99219 384.516 2.13281V17.8125Z" fill="white"/>
<path d="M443.062 18.3047C443.062 21.5391 442.258 24.5469 440.648 27.3281C439.055 30.1094 436.875 32.3281 434.109 33.9844C431.344 35.625 428.281 36.4453 424.922 36.4453C421.547 36.4453 418.453 35.625 415.641 33.9844C412.828 32.3281 410.609 30.1016 408.984 27.3047C407.375 24.5078 406.57 21.4609 406.57 18.1641C406.57 15.6328 407.047 13.2578 408 11.0391C408.969 8.80469 410.312 6.85938 412.031 5.20312C413.766 3.54688 415.734 2.26562 417.938 1.35938C420.156 0.453125 422.469 0 424.875 0C427.234 0 429.5 0.4375 431.672 1.3125C433.844 2.17188 435.789 3.42188 437.508 5.0625C439.242 6.70312 440.602 8.64844 441.586 10.8984C442.57 13.1484 443.062 15.6172 443.062 18.3047ZM438.938 18.3984C438.938 13.8047 438.125 10.2109 436.5 7.61719C434.875 5.02344 433 3.28906 430.875 2.41406C428.75 1.52344 426.75 1.07812 424.875 1.07812C423.422 1.07812 421.914 1.32031 420.352 1.80469C418.789 2.27344 417.266 3.14062 415.781 4.40625C414.312 5.67188 413.102 7.45312 412.148 9.75C411.195 12.0469 410.719 14.8828 410.719 18.2578C410.719 21.2266 411.109 23.8203 411.891 26.0391C412.688 28.2422 413.773 30.0469 415.148 31.4531C416.539 32.8438 418.062 33.8516 419.719 34.4766C421.391 35.0859 423.125 35.3906 424.922 35.3906C426.531 35.3906 428.156 35.1094 429.797 34.5469C431.453 33.9688 432.961 33.0391 434.32 31.7578C435.695 30.4609 436.805 28.7109 437.648 26.5078C438.508 24.2891 438.938 21.5859 438.938 18.3984Z" fill="white"/>
<path d="M484.594 18.3047C484.594 21.5391 483.789 24.5469 482.18 27.3281C480.586 30.1094 478.406 32.3281 475.641 33.9844C472.875 35.625 469.812 36.4453 466.453 36.4453C463.078 36.4453 459.984 35.625 457.172 33.9844C454.359 32.3281 452.141 30.1016 450.516 27.3047C448.906 24.5078 448.102 21.4609 448.102 18.1641C448.102 15.6328 448.578 13.2578 449.531 11.0391C450.5 8.80469 451.844 6.85938 453.562 5.20312C455.297 3.54688 457.266 2.26562 459.469 1.35938C461.688 0.453125 464 0 466.406 0C468.766 0 471.031 0.4375 473.203 1.3125C475.375 2.17188 477.32 3.42188 479.039 5.0625C480.773 6.70312 482.133 8.64844 483.117 10.8984C484.102 13.1484 484.594 15.6172 484.594 18.3047ZM480.469 18.3984C480.469 13.8047 479.656 10.2109 478.031 7.61719C476.406 5.02344 474.531 3.28906 472.406 2.41406C470.281 1.52344 468.281 1.07812 466.406 1.07812C464.953 1.07812 463.445 1.32031 461.883 1.80469C460.32 2.27344 458.797 3.14062 457.312 4.40625C455.844 5.67188 454.633 7.45312 453.68 9.75C452.727 12.0469 452.25 14.8828 452.25 18.2578C452.25 21.2266 452.641 23.8203 453.422 26.0391C454.219 28.2422 455.305 30.0469 456.68 31.4531C458.07 32.8438 459.594 33.8516 461.25 34.4766C462.922 35.0859 464.656 35.3906 466.453 35.3906C468.062 35.3906 469.688 35.1094 471.328 34.5469C472.984 33.9688 474.492 33.0391 475.852 31.7578C477.227 30.4609 478.336 28.7109 479.18 26.5078C480.039 24.2891 480.469 21.5859 480.469 18.3984Z" fill="white"/>
<path d="M525.492 1.00781V1.40625C524.836 1.48438 524.367 1.55469 524.086 1.61719C523.805 1.66406 523.492 1.82031 523.148 2.08594C522.617 2.49219 522.281 2.875 522.141 3.23438C522.016 3.59375 521.938 4.21875 521.906 5.10938C521.859 5.25 521.859 5.39062 521.906 5.53125L523.102 31.1719C523.133 32.25 523.391 33.1797 523.875 33.9609C524.359 34.7422 525.414 35.1406 527.039 35.1562V35.5312H515.859V35.1562C517.328 35 518.32 34.5781 518.836 33.8906C519.352 33.1875 519.57 32.1016 519.492 30.6328L518.297 4.10156H518.203L506.016 35.5312L494.484 5.25H494.391L493.148 29.7188C493.086 31.0625 493.164 32.1094 493.383 32.8594C493.617 33.5938 493.984 34.125 494.484 34.4531C494.984 34.7656 495.727 35 496.711 35.1562V35.5312H488.016V35.1562C489.125 35.1406 489.969 34.875 490.547 34.3594C491.125 33.8438 491.5 33.2031 491.672 32.4375C491.859 31.6562 492 30.5938 492.094 29.25L493.477 3.9375C493.477 3.84375 493.383 3.67969 493.195 3.44531C493.008 3.19531 492.773 2.95312 492.492 2.71875C492.227 2.46875 491.969 2.27344 491.719 2.13281C491.188 1.80469 490.727 1.61719 490.336 1.57031C489.945 1.50781 489.398 1.45312 488.695 1.40625V1.00781H496.711L507.398 29.25L518.25 1.00781H525.492Z" fill="white"/>
<path d="M547.641 7.64062H547.266C547.047 5.96875 546.312 4.50781 545.062 3.25781C543.828 1.99219 542.195 1.35938 540.164 1.35938C538.836 1.35938 537.656 1.67188 536.625 2.29688C535.594 2.92188 534.797 3.77344 534.234 4.85156C533.672 5.92969 533.391 7.16406 533.391 8.55469C533.391 9.63281 533.555 10.5938 533.883 11.4375C534.227 12.2656 534.727 13 535.383 13.6406C536.039 14.2812 536.812 14.8828 537.703 15.4453C538.594 15.9922 539.797 16.6875 541.312 17.5312C543.844 18.9219 545.812 20.3125 547.219 21.7031C548.625 23.0781 549.328 24.9688 549.328 27.375C549.328 28.8438 548.945 30.2656 548.18 31.6406C547.43 33 546.289 34.1172 544.758 34.9922C543.227 35.8672 541.328 36.3047 539.062 36.3047C537.641 36.3047 536.383 36.1484 535.289 35.8359C534.195 35.5391 533.086 35.1172 531.961 34.5703C531.492 34.4141 531.172 34.3359 531 34.3359C530.672 34.3359 530.453 34.4531 530.344 34.6875C530.25 34.9219 530.117 35.4297 529.945 36.2109H529.547V27.5625H529.945C530.508 30.0938 531.602 32.0078 533.227 33.3047C534.852 34.6016 536.828 35.25 539.156 35.25C540.906 35.25 542.305 34.9219 543.352 34.2656C544.414 33.6094 545.148 32.8125 545.555 31.875C545.961 30.9375 546.164 30 546.164 29.0625C546.164 27.125 545.57 25.5469 544.383 24.3281C543.211 23.0938 541.422 21.8359 539.016 20.5547C537.359 19.6484 536.133 18.9453 535.336 18.4453C534.539 17.9453 533.727 17.2969 532.898 16.5C532.086 15.7031 531.438 14.7656 530.953 13.6875C530.469 12.5938 530.227 11.3438 530.227 9.9375C530.227 8.3125 530.656 6.75781 531.516 5.27344C532.375 3.78906 533.594 2.60156 535.172 1.71094C536.75 0.804688 538.539 0.351562 540.539 0.351562C542.055 0.351562 543.609 0.609375 545.203 1.125C545.453 1.25 545.789 1.3125 546.211 1.3125C546.727 1.3125 547.078 0.960938 547.266 0.257812H547.641V7.64062Z" fill="white"/>
</svg>
