<svg width="300" height="90" viewBox="0 0 300 90" fill="none" xmlns="http://www.w3.org/2000/svg">
<path d="M36.7461 1.91504V2.29688C36.1172 2.37174 35.668 2.43913 35.3984 2.49902C35.1289 2.54395 34.8294 2.69368 34.5 2.94824C33.9909 3.33757 33.6689 3.70443 33.5342 4.04883C33.4144 4.39323 33.3395 4.99219 33.3096 5.8457C33.2646 5.98047 33.2646 6.11523 33.3096 6.25L34.4551 30.8223C34.485 31.8555 34.7321 32.7464 35.1963 33.4951C35.6605 34.2438 36.6712 34.6257 38.2285 34.6406V35H27.5146V34.6406C28.9222 34.4909 29.873 34.0866 30.3672 33.4277C30.8613 32.7539 31.071 31.7132 30.9961 30.3057L29.8506 4.87988H29.7607L18.0811 35L7.03027 5.98047H6.94043L5.75 29.4297C5.6901 30.7174 5.76497 31.7207 5.97461 32.4395C6.19922 33.1432 6.55111 33.6523 7.03027 33.9668C7.50944 34.2663 8.2207 34.4909 9.16406 34.6406V35H0.831055V34.6406C1.89421 34.6257 2.7028 34.3711 3.25684 33.877C3.81087 33.3828 4.17025 32.7689 4.33496 32.0352C4.51465 31.2865 4.64941 30.2682 4.73926 28.9805L6.06445 4.72266C6.06445 4.63281 5.97461 4.47559 5.79492 4.25098C5.61523 4.01139 5.39062 3.7793 5.12109 3.55469C4.86654 3.3151 4.61947 3.12793 4.37988 2.99316C3.87077 2.67871 3.42904 2.49902 3.05469 2.4541C2.68034 2.39421 2.15625 2.3418 1.48242 2.29688V1.91504H9.16406L19.4062 28.9805L29.8057 1.91504H36.7461Z" fill="#E7DEDE"/>
<path d="M56.04 1.51074L65.9453 29.8564C66.4694 31.3239 66.9635 32.387 67.4277 33.0459C67.8919 33.7048 68.3337 34.124 68.7529 34.3037C69.1872 34.4684 69.7337 34.5807 70.3926 34.6406V35H59.5889V34.6406C60.6969 34.6406 61.5505 34.5358 62.1494 34.3262C62.7484 34.1165 63.0479 33.5475 63.0479 32.6191C63.0479 32.11 62.9056 31.4287 62.6211 30.5752C62.5612 30.4554 62.5312 30.3656 62.5312 30.3057L59.5889 21.5234H48.1338L45.5059 29.6543C45.1465 30.7624 44.9668 31.6533 44.9668 32.3271C44.9668 33.2555 45.1989 33.877 45.6631 34.1914C46.1273 34.4909 46.7861 34.6406 47.6396 34.6406V35H39.8682V34.6406C40.9762 34.5358 41.8597 34.1165 42.5186 33.3828C43.1924 32.6341 43.7764 31.5036 44.2705 29.9912L53.6143 1.51074H56.04ZM48.5156 20.333H59.0498L53.6592 4.63281H53.5693L48.5156 20.333Z" fill="#E7DEDE"/>
<path d="M72.998 2.38672H72.5488V1.91504H84.0039C85.8457 1.91504 87.403 2.19954 88.6758 2.76855C89.9635 3.33757 90.9593 4.0638 91.6631 4.94727C92.3818 5.81576 92.891 6.73665 93.1904 7.70996C93.5049 8.68327 93.6621 9.6416 93.6621 10.585C93.6621 11.7829 93.4076 12.9359 92.8984 14.0439C92.4043 15.137 91.6331 16.0804 90.585 16.874C89.5518 17.6676 88.2565 18.2067 86.6992 18.4912V18.5811C88.6758 19.5394 90.5026 21.4411 92.1797 24.2861L95.167 29.3398C96.5146 31.6009 97.5928 33.0309 98.4014 33.6299C99.2249 34.2288 100.034 34.5658 100.827 34.6406V35H94.8076C94.5531 34.6706 94.3135 34.3561 94.0889 34.0566C93.8643 33.7422 93.6247 33.4128 93.3701 33.0684C93.2204 32.8438 92.9958 32.5068 92.6963 32.0576C92.4118 31.5934 92.2396 31.3314 92.1797 31.2715L88.2266 24.7354C87.4329 23.4027 86.6169 22.3245 85.7783 21.501C84.9548 20.6624 84.1836 20.0635 83.4648 19.7041C82.7461 19.3447 82.0947 19.1201 81.5107 19.0303C80.9417 18.9404 80.2679 18.8955 79.4893 18.8955V31.002C79.4893 33.3529 80.6872 34.5658 83.083 34.6406V35H72.5488V34.6406C73.2077 34.6107 73.7917 34.4909 74.3008 34.2812C74.8099 34.0566 75.2292 33.6823 75.5586 33.1582C75.903 32.6191 76.0752 31.9004 76.0752 31.002V5.98047C76.0752 4.66276 75.7533 3.73438 75.1094 3.19531C74.4655 2.65625 73.7617 2.38672 72.998 2.38672ZM79.4893 18.0195H81.376C83.3525 18.0195 84.9697 17.735 86.2275 17.166C87.5003 16.597 88.4212 15.7884 88.9902 14.7402C89.5592 13.6771 89.8438 12.3818 89.8438 10.8545C89.8438 9.58171 89.5892 8.33887 89.0801 7.12598C88.571 5.89811 87.7025 4.8724 86.4746 4.04883C85.2617 3.21029 83.6221 2.79102 81.5557 2.79102C80.7171 2.79102 80.0283 2.8584 79.4893 2.99316V18.0195Z" fill="#E7DEDE"/>
<path d="M130.071 9.32715H129.689C129.405 7.70996 128.641 6.33984 127.398 5.2168C126.171 4.09375 124.756 3.27767 123.153 2.76855C121.551 2.24447 120.054 1.98242 118.661 1.98242C116.759 1.98242 114.97 2.38672 113.293 3.19531C111.631 3.98893 110.193 5.11947 108.98 6.58691C107.768 8.03939 106.824 9.79134 106.15 11.8428C105.477 13.8792 105.14 16.0954 105.14 18.4912C105.14 20.8122 105.462 22.9684 106.105 24.96C106.764 26.9365 107.715 28.6585 108.958 30.126C110.216 31.5785 111.668 32.679 113.315 33.4277C114.963 34.1764 116.789 34.5508 118.796 34.5508C120.473 34.5508 122.315 34.2139 124.321 33.54C126.328 32.8512 128.14 31.7132 129.757 30.126V31.4062C127.765 32.9486 125.938 34.0791 124.276 34.7979C122.629 35.5166 120.57 35.876 118.1 35.876C115.494 35.876 113.113 35.4043 110.957 34.4609C108.816 33.5026 107.004 32.2148 105.521 30.5977C104.039 28.9805 102.916 27.1611 102.152 25.1396C101.389 23.1182 101.007 21.0368 101.007 18.8955C101.007 15.6761 101.8 12.6888 103.388 9.93359C104.975 7.16341 107.124 4.97721 109.834 3.375C112.544 1.75781 115.487 0.949219 118.661 0.949219C120.623 0.949219 122.712 1.24121 124.928 1.8252L127.264 2.47656C127.713 2.56641 128.095 2.61133 128.409 2.61133C128.993 2.61133 129.382 2.52897 129.577 2.36426C129.772 2.18457 129.922 1.87012 130.026 1.4209H130.386L130.071 9.32715Z" fill="#E7DEDE"/>
<path d="M159.136 17.0537V5.98047C159.136 4.90234 158.844 4.01888 158.26 3.33008C157.676 2.64128 156.77 2.29688 155.542 2.29688V1.91504H166.076V2.29688C164.848 2.29688 163.95 2.64128 163.381 3.33008C162.812 4.00391 162.527 4.88737 162.527 5.98047V31.002C162.527 33.4277 163.71 34.6406 166.076 34.6406V35H155.542V34.6406C156.665 34.6406 157.541 34.3411 158.17 33.7422C158.814 33.1283 159.136 32.2298 159.136 31.0469V18.0645H140.179V31.002C140.179 32.1549 140.501 33.0534 141.145 33.6973C141.803 34.3262 142.679 34.6406 143.772 34.6406V35H133.238V34.6406C134.376 34.6406 135.245 34.3262 135.844 33.6973C136.458 33.0534 136.765 32.1549 136.765 31.002V5.98047C136.765 3.52474 135.589 2.29688 133.238 2.29688V1.91504H143.772V2.29688C142.53 2.29688 141.616 2.64128 141.032 3.33008C140.463 4.00391 140.179 4.88737 140.179 5.98047V17.0537H159.136Z" fill="#E7DEDE"/>
<path d="M169.221 2.29688V1.91504H188.941V7.12598H188.627C188.627 4.34082 186.77 2.94824 183.057 2.94824H176.161V17.9746H182.226C183.424 17.9746 184.494 17.7799 185.438 17.3906C186.381 17.0013 186.92 16.1104 187.055 14.7178H187.392V22.2197H187.055C186.92 21.3662 186.665 20.7148 186.291 20.2656C185.917 19.8014 185.542 19.4945 185.168 19.3447C184.809 19.195 184.487 19.1201 184.202 19.1201C183.663 19.0303 183.102 18.9854 182.518 18.9854H176.161V30.7324C176.161 31.6159 176.326 32.3796 176.655 33.0234C177 33.6673 177.786 33.9893 179.014 33.9893H183.933C185.116 33.9893 186.089 33.8171 186.853 33.4727C187.616 33.1283 188.215 32.6491 188.649 32.0352C189.099 31.4212 189.473 30.68 189.772 29.8115H190.087L188.941 35H169.221V34.6406H169.67C170.374 34.6406 171.062 34.3561 171.736 33.7871C172.41 33.2181 172.747 32.2897 172.747 31.002V6.07031C172.747 5.05208 172.515 4.16862 172.051 3.41992C171.602 2.67122 170.808 2.29688 169.67 2.29688H169.221Z" fill="#E7DEDE"/>
<path d="M209.718 8.27148H209.358C209.149 6.66927 208.445 5.26921 207.247 4.07129C206.064 2.8584 204.499 2.25195 202.553 2.25195C201.28 2.25195 200.149 2.55143 199.161 3.15039C198.173 3.74935 197.409 4.56543 196.87 5.59863C196.331 6.63184 196.062 7.81478 196.062 9.14746C196.062 10.1807 196.219 11.1016 196.533 11.9102C196.863 12.7038 197.342 13.4076 197.971 14.0215C198.6 14.6354 199.341 15.2119 200.194 15.751C201.048 16.2751 202.201 16.9414 203.653 17.75C206.079 19.0827 207.966 20.4154 209.313 21.748C210.661 23.0658 211.335 24.8776 211.335 27.1836C211.335 28.5911 210.968 29.9538 210.234 31.2715C209.516 32.5742 208.423 33.6449 206.955 34.4834C205.488 35.3219 203.668 35.7412 201.497 35.7412C200.134 35.7412 198.929 35.5915 197.881 35.292C196.833 35.0075 195.77 34.6032 194.691 34.0791C194.242 33.9294 193.935 33.8545 193.771 33.8545C193.456 33.8545 193.246 33.9668 193.142 34.1914C193.052 34.416 192.924 34.9027 192.76 35.6514H192.378V27.3633H192.76C193.299 29.7891 194.347 31.6234 195.904 32.8662C197.462 34.109 199.356 34.7305 201.587 34.7305C203.264 34.7305 204.604 34.416 205.607 33.7871C206.626 33.1582 207.329 32.3945 207.719 31.4961C208.108 30.5977 208.303 29.6992 208.303 28.8008C208.303 26.944 207.734 25.4316 206.596 24.2637C205.473 23.0807 203.758 21.8753 201.452 20.6475C199.865 19.779 198.689 19.1051 197.926 18.626C197.162 18.1468 196.383 17.5254 195.59 16.7617C194.811 15.998 194.19 15.0996 193.726 14.0664C193.261 13.0182 193.029 11.8203 193.029 10.4727C193.029 8.91536 193.441 7.42546 194.265 6.00293C195.088 4.5804 196.256 3.44238 197.769 2.58887C199.281 1.72038 200.995 1.28613 202.912 1.28613C204.365 1.28613 205.854 1.5332 207.382 2.02734C207.621 2.14714 207.943 2.20703 208.348 2.20703C208.842 2.20703 209.179 1.87012 209.358 1.19629H209.718V8.27148Z" fill="#E7DEDE"/>
<path d="M36.7461 55.915V56.2969C36.1172 56.3717 35.668 56.4391 35.3984 56.499C35.1289 56.5439 34.8294 56.6937 34.5 56.9482C33.9909 57.3376 33.6689 57.7044 33.5342 58.0488C33.4144 58.3932 33.3395 58.9922 33.3096 59.8457C33.2646 59.9805 33.2646 60.1152 33.3096 60.25L34.4551 84.8223C34.485 85.8555 34.7321 86.7464 35.1963 87.4951C35.6605 88.2438 36.6712 88.6257 38.2285 88.6406V89H27.5146V88.6406C28.9222 88.4909 29.873 88.0866 30.3672 87.4277C30.8613 86.7539 31.071 85.7132 30.9961 84.3057L29.8506 58.8799H29.7607L18.0811 89L7.03027 59.9805H6.94043L5.75 83.4297C5.6901 84.7174 5.76497 85.7207 5.97461 86.4395C6.19922 87.1432 6.55111 87.6523 7.03027 87.9668C7.50944 88.2663 8.2207 88.4909 9.16406 88.6406V89H0.831055V88.6406C1.89421 88.6257 2.7028 88.3711 3.25684 87.877C3.81087 87.3828 4.17025 86.7689 4.33496 86.0352C4.51465 85.2865 4.64941 84.2682 4.73926 82.9805L6.06445 58.7227C6.06445 58.6328 5.97461 58.4756 5.79492 58.251C5.61523 58.0114 5.39062 57.7793 5.12109 57.5547C4.86654 57.3151 4.61947 57.1279 4.37988 56.9932C3.87077 56.6787 3.42904 56.499 3.05469 56.4541C2.68034 56.3942 2.15625 56.3418 1.48242 56.2969V55.915H9.16406L19.4062 82.9805L29.8057 55.915H36.7461Z" fill="#E7DEDE"/>
<path d="M73.627 89H66.6865V83.5195L66.5742 83.4297C65.6159 85.6608 64.1784 87.293 62.2617 88.3262C60.36 89.3594 58.3685 89.876 56.2871 89.876C53.9362 89.876 51.8174 89.3145 49.9307 88.1914C48.0589 87.0684 46.6813 85.6833 45.7979 84.0361C45.1689 82.8682 44.7721 81.6553 44.6074 80.3975C44.4427 79.1247 44.3604 77.807 44.3604 76.4443V59.9805C44.3604 58.9922 44.1582 58.1611 43.7539 57.4873C43.3646 56.8135 42.4212 56.4167 40.9238 56.2969V55.915H51.3232V56.2969C49.7959 56.4766 48.8226 56.9183 48.4033 57.6221C47.984 58.3258 47.7744 59.112 47.7744 59.9805V76.1748C47.7744 79.4691 48.1113 81.9023 48.7852 83.4746C49.5039 85.1517 50.582 86.4619 52.0195 87.4053C53.457 88.3486 55.0892 88.8203 56.916 88.8203C57.6797 88.8203 58.5856 88.6855 59.6338 88.416C60.682 88.1465 61.6628 87.6973 62.5762 87.0684C65.3164 85.1966 66.6865 82.1943 66.6865 78.0615V59.9805C66.6865 59.0671 66.4769 58.2585 66.0576 57.5547C65.6383 56.8509 64.6501 56.4316 63.0928 56.2969V55.915H73.6719V56.2969C72.1445 56.3717 71.1637 56.7985 70.7295 57.5771C70.2952 58.3558 70.0781 59.1419 70.0781 59.9355V85.002C70.0781 85.8704 70.2204 86.5592 70.5049 87.0684C70.8044 87.5625 71.2087 87.9144 71.7178 88.124C72.2419 88.3337 72.8783 88.5059 73.627 88.6406V89Z" fill="#E7DEDE"/>
<path d="M93.9092 62.2715H93.5498C93.3402 60.6693 92.6364 59.2692 91.4385 58.0713C90.2555 56.8584 88.6908 56.252 86.7441 56.252C85.4714 56.252 84.3408 56.5514 83.3525 57.1504C82.3643 57.7493 81.6006 58.5654 81.0615 59.5986C80.5225 60.6318 80.2529 61.8148 80.2529 63.1475C80.2529 64.1807 80.4102 65.1016 80.7246 65.9102C81.054 66.7038 81.5332 67.4076 82.1621 68.0215C82.791 68.6354 83.5322 69.2119 84.3857 69.751C85.2393 70.2751 86.3923 70.9414 87.8447 71.75C90.2705 73.0827 92.1572 74.4154 93.5049 75.748C94.8525 77.0658 95.5264 78.8776 95.5264 81.1836C95.5264 82.5911 95.1595 83.9538 94.4258 85.2715C93.707 86.5742 92.6139 87.6449 91.1465 88.4834C89.679 89.3219 87.8597 89.7412 85.6885 89.7412C84.3258 89.7412 83.1204 89.5915 82.0723 89.292C81.0241 89.0075 79.9609 88.6032 78.8828 88.0791C78.4336 87.9294 78.1266 87.8545 77.9619 87.8545C77.6475 87.8545 77.4378 87.9668 77.333 88.1914C77.2432 88.416 77.1159 88.9027 76.9512 89.6514H76.5693V81.3633H76.9512C77.4902 83.7891 78.5384 85.6234 80.0957 86.8662C81.653 88.109 83.5472 88.7305 85.7783 88.7305C87.4554 88.7305 88.7956 88.416 89.7988 87.7871C90.8171 87.1582 91.5208 86.3945 91.9102 85.4961C92.2995 84.5977 92.4941 83.6992 92.4941 82.8008C92.4941 80.944 91.9251 79.4316 90.7871 78.2637C89.6641 77.0807 87.9495 75.8753 85.6436 74.6475C84.0563 73.779 82.8809 73.1051 82.1172 72.626C81.3535 72.1468 80.5749 71.5254 79.7812 70.7617C79.0026 69.998 78.3812 69.0996 77.917 68.0664C77.4528 67.0182 77.2207 65.8203 77.2207 64.4727C77.2207 62.9154 77.6325 61.4255 78.4561 60.0029C79.2796 58.5804 80.4476 57.4424 81.96 56.5889C83.4723 55.7204 85.1868 55.2861 87.1035 55.2861C88.556 55.2861 90.0459 55.5332 91.5732 56.0273C91.8128 56.1471 92.1348 56.207 92.5391 56.207C93.0332 56.207 93.3701 55.8701 93.5498 55.1963H93.9092V62.2715Z" fill="#E7DEDE"/>
<path d="M124.321 71.0537V59.9805C124.321 58.9023 124.029 58.0189 123.445 57.3301C122.861 56.6413 121.955 56.2969 120.728 56.2969V55.915H131.262V56.2969C130.034 56.2969 129.135 56.6413 128.566 57.3301C127.997 58.0039 127.713 58.8874 127.713 59.9805V85.002C127.713 87.4277 128.896 88.6406 131.262 88.6406V89H120.728V88.6406C121.851 88.6406 122.727 88.3411 123.355 87.7422C123.999 87.1283 124.321 86.2298 124.321 85.0469V72.0645H105.364V85.002C105.364 86.1549 105.686 87.0534 106.33 87.6973C106.989 88.3262 107.865 88.6406 108.958 88.6406V89H98.4238V88.6406C99.5618 88.6406 100.43 88.3262 101.029 87.6973C101.643 87.0534 101.95 86.1549 101.95 85.002V59.9805C101.95 57.5247 100.775 56.2969 98.4238 56.2969V55.915H108.958V56.2969C107.715 56.2969 106.802 56.6413 106.218 57.3301C105.649 58.0039 105.364 58.8874 105.364 59.9805V71.0537H124.321Z" fill="#E7DEDE"/>
<path d="M134.811 56.3867H134.361V55.915H145.816C147.658 55.915 149.215 56.1995 150.488 56.7686C151.776 57.3376 152.772 58.0638 153.476 58.9473C154.194 59.8158 154.703 60.7367 155.003 61.71C155.317 62.6833 155.475 63.6416 155.475 64.585C155.475 65.7829 155.22 66.9359 154.711 68.0439C154.217 69.137 153.446 70.0804 152.397 70.874C151.364 71.6676 150.069 72.2067 148.512 72.4912V72.5811C150.488 73.5394 152.315 75.4411 153.992 78.2861L156.979 83.3398C158.327 85.6009 159.405 87.0309 160.214 87.6299C161.037 88.2288 161.846 88.5658 162.64 88.6406V89H156.62C156.366 88.6706 156.126 88.3561 155.901 88.0566C155.677 87.7422 155.437 87.4128 155.183 87.0684C155.033 86.8438 154.808 86.5068 154.509 86.0576C154.224 85.5934 154.052 85.3314 153.992 85.2715L150.039 78.7354C149.245 77.4027 148.429 76.3245 147.591 75.501C146.767 74.6624 145.996 74.0635 145.277 73.7041C144.559 73.3447 143.907 73.1201 143.323 73.0303C142.754 72.9404 142.08 72.8955 141.302 72.8955V85.002C141.302 87.3529 142.5 88.5658 144.896 88.6406V89H134.361V88.6406C135.02 88.6107 135.604 88.4909 136.113 88.2812C136.622 88.0566 137.042 87.6823 137.371 87.1582C137.715 86.6191 137.888 85.9004 137.888 85.002V59.9805C137.888 58.6628 137.566 57.7344 136.922 57.1953C136.278 56.6562 135.574 56.3867 134.811 56.3867ZM141.302 72.0195H143.188C145.165 72.0195 146.782 71.735 148.04 71.166C149.313 70.597 150.234 69.7884 150.803 68.7402C151.372 67.6771 151.656 66.3818 151.656 64.8545C151.656 63.5817 151.402 62.3389 150.893 61.126C150.383 59.8981 149.515 58.8724 148.287 58.0488C147.074 57.2103 145.435 56.791 143.368 56.791C142.53 56.791 141.841 56.8584 141.302 56.9932V72.0195Z" fill="#E7DEDE"/>
<path d="M197.409 72.4912C197.409 75.5908 196.638 78.4733 195.096 81.1387C193.568 83.804 191.479 85.9303 188.829 87.5176C186.179 89.0898 183.244 89.876 180.024 89.876C176.79 89.876 173.825 89.0898 171.13 87.5176C168.435 85.9303 166.308 83.7965 164.751 81.1162C163.209 78.4359 162.438 75.516 162.438 72.3564C162.438 69.9307 162.894 67.6546 163.808 65.5283C164.736 63.387 166.024 61.5228 167.671 59.9355C169.333 58.3483 171.22 57.1204 173.331 56.252C175.457 55.3835 177.674 54.9492 179.979 54.9492C182.241 54.9492 184.412 55.3685 186.493 56.207C188.575 57.0306 190.439 58.2285 192.086 59.8008C193.748 61.373 195.051 63.2373 195.994 65.3936C196.938 67.5498 197.409 69.9157 197.409 72.4912ZM193.456 72.5811C193.456 68.1787 192.677 64.7347 191.12 62.249C189.563 59.7633 187.766 58.1012 185.729 57.2627C183.693 56.4092 181.776 55.9824 179.979 55.9824C178.587 55.9824 177.142 56.2145 175.645 56.6787C174.147 57.1279 172.687 57.959 171.265 59.1719C169.857 60.3848 168.697 62.0918 167.783 64.293C166.87 66.4941 166.413 69.2119 166.413 72.4463C166.413 75.2913 166.787 77.777 167.536 79.9033C168.3 82.0146 169.34 83.7441 170.658 85.0918C171.991 86.4245 173.451 87.3903 175.038 87.9893C176.64 88.5732 178.302 88.8652 180.024 88.8652C181.567 88.8652 183.124 88.5957 184.696 88.0566C186.284 87.5026 187.729 86.6117 189.031 85.3838C190.349 84.141 191.412 82.4639 192.221 80.3525C193.044 78.2262 193.456 75.6357 193.456 72.5811Z" fill="#E7DEDE"/>
<path d="M237.21 72.4912C237.21 75.5908 236.439 78.4733 234.896 81.1387C233.369 83.804 231.28 85.9303 228.63 87.5176C225.979 89.0898 223.045 89.876 219.825 89.876C216.591 89.876 213.626 89.0898 210.931 87.5176C208.235 85.9303 206.109 83.7965 204.552 81.1162C203.009 78.4359 202.238 75.516 202.238 72.3564C202.238 69.9307 202.695 67.6546 203.608 65.5283C204.537 63.387 205.825 61.5228 207.472 59.9355C209.134 58.3483 211.021 57.1204 213.132 56.252C215.258 55.3835 217.474 54.9492 219.78 54.9492C222.041 54.9492 224.213 55.3685 226.294 56.207C228.375 57.0306 230.24 58.2285 231.887 59.8008C233.549 61.373 234.852 63.2373 235.795 65.3936C236.738 67.5498 237.21 69.9157 237.21 72.4912ZM233.257 72.5811C233.257 68.1787 232.478 64.7347 230.921 62.249C229.364 59.7633 227.567 58.1012 225.53 57.2627C223.494 56.4092 221.577 55.9824 219.78 55.9824C218.388 55.9824 216.943 56.2145 215.445 56.6787C213.948 57.1279 212.488 57.959 211.065 59.1719C209.658 60.3848 208.497 62.0918 207.584 64.293C206.671 66.4941 206.214 69.2119 206.214 72.4463C206.214 75.2913 206.588 77.777 207.337 79.9033C208.101 82.0146 209.141 83.7441 210.459 85.0918C211.792 86.4245 213.252 87.3903 214.839 87.9893C216.441 88.5732 218.103 88.8652 219.825 88.8652C221.368 88.8652 222.925 88.5957 224.497 88.0566C226.084 87.5026 227.529 86.6117 228.832 85.3838C230.15 84.141 231.213 82.4639 232.021 80.3525C232.845 78.2262 233.257 75.6357 233.257 72.5811Z" fill="#E7DEDE"/>
<path d="M276.404 55.915V56.2969C275.775 56.3717 275.326 56.4391 275.057 56.499C274.787 56.5439 274.488 56.6937 274.158 56.9482C273.649 57.3376 273.327 57.7044 273.192 58.0488C273.073 58.3932 272.998 58.9922 272.968 59.8457C272.923 59.9805 272.923 60.1152 272.968 60.25L274.113 84.8223C274.143 85.8555 274.39 86.7464 274.854 87.4951C275.319 88.2438 276.329 88.6257 277.887 88.6406V89H267.173V88.6406C268.58 88.4909 269.531 88.0866 270.025 87.4277C270.52 86.7539 270.729 85.7132 270.654 84.3057L269.509 58.8799H269.419L257.739 89L246.688 59.9805H246.599L245.408 83.4297C245.348 84.7174 245.423 85.7207 245.633 86.4395C245.857 87.1432 246.209 87.6523 246.688 87.9668C247.168 88.2663 247.879 88.4909 248.822 88.6406V89H240.489V88.6406C241.552 88.6257 242.361 88.3711 242.915 87.877C243.469 87.3828 243.828 86.7689 243.993 86.0352C244.173 85.2865 244.308 84.2682 244.397 82.9805L245.723 58.7227C245.723 58.6328 245.633 58.4756 245.453 58.251C245.273 58.0114 245.049 57.7793 244.779 57.5547C244.525 57.3151 244.278 57.1279 244.038 56.9932C243.529 56.6787 243.087 56.499 242.713 56.4541C242.339 56.3942 241.814 56.3418 241.141 56.2969V55.915H248.822L259.064 82.9805L269.464 55.915H276.404Z" fill="#E7DEDE"/>
<path d="M297.63 62.2715H297.271C297.061 60.6693 296.357 59.2692 295.159 58.0713C293.976 56.8584 292.411 56.252 290.465 56.252C289.192 56.252 288.062 56.5514 287.073 57.1504C286.085 57.7493 285.321 58.5654 284.782 59.5986C284.243 60.6318 283.974 61.8148 283.974 63.1475C283.974 64.1807 284.131 65.1016 284.445 65.9102C284.775 66.7038 285.254 67.4076 285.883 68.0215C286.512 68.6354 287.253 69.2119 288.106 69.751C288.96 70.2751 290.113 70.9414 291.565 71.75C293.991 73.0827 295.878 74.4154 297.226 75.748C298.573 77.0658 299.247 78.8776 299.247 81.1836C299.247 82.5911 298.88 83.9538 298.146 85.2715C297.428 86.5742 296.335 87.6449 294.867 88.4834C293.4 89.3219 291.58 89.7412 289.409 89.7412C288.047 89.7412 286.841 89.5915 285.793 89.292C284.745 89.0075 283.682 88.6032 282.604 88.0791C282.154 87.9294 281.847 87.8545 281.683 87.8545C281.368 87.8545 281.159 87.9668 281.054 88.1914C280.964 88.416 280.837 88.9027 280.672 89.6514H280.29V81.3633H280.672C281.211 83.7891 282.259 85.6234 283.816 86.8662C285.374 88.109 287.268 88.7305 289.499 88.7305C291.176 88.7305 292.516 88.416 293.52 87.7871C294.538 87.1582 295.242 86.3945 295.631 85.4961C296.02 84.5977 296.215 83.6992 296.215 82.8008C296.215 80.944 295.646 79.4316 294.508 78.2637C293.385 77.0807 291.67 75.8753 289.364 74.6475C287.777 73.779 286.602 73.1051 285.838 72.626C285.074 72.1468 284.296 71.5254 283.502 70.7617C282.723 69.998 282.102 69.0996 281.638 68.0664C281.174 67.0182 280.941 65.8203 280.941 64.4727C280.941 62.9154 281.353 61.4255 282.177 60.0029C283 58.5804 284.168 57.4424 285.681 56.5889C287.193 55.7204 288.908 55.2861 290.824 55.2861C292.277 55.2861 293.767 55.5332 295.294 56.0273C295.534 56.1471 295.855 56.207 296.26 56.207C296.754 56.207 297.091 55.8701 297.271 55.1963H297.63V62.2715Z" fill="#E7DEDE"/>
</svg>
