<svg width="258" height="38" viewBox="0 0 258 38" fill="none" xmlns="http://www.w3.org/2000/svg">
<path d="M0.828125 2.875V2.47656H12.1484C14.0391 2.47656 15.7031 2.73438 17.1406 3.25C18.5938 3.76562 19.7969 4.46875 20.75 5.35938C21.7188 6.25 22.4375 7.25781 22.9062 8.38281C23.3906 9.49219 23.6328 10.6641 23.6328 11.8984C23.6328 13.1016 23.4062 14.2656 22.9531 15.3906C22.5156 16.5 21.8203 17.4922 20.8672 18.3672C19.9141 19.2266 18.6641 19.9141 17.1172 20.4297C15.5703 20.9453 13.7891 21.2031 11.7734 21.2031C11.1328 21.2031 9.89844 21.1094 8.07031 20.9219V32.8281C8.07031 35.2812 9.32031 36.5469 11.8203 36.625V37H0.828125V36.625C1.90625 36.5938 2.78906 36.2891 3.47656 35.7109C4.17969 35.1172 4.53125 34.1562 4.53125 32.8281V6.71875C4.53125 5.92188 4.40625 5.25781 4.15625 4.72656C3.90625 4.19531 3.60938 3.82031 3.26562 3.60156C2.9375 3.36719 2.5625 3.19531 2.14062 3.08594C1.73438 2.97656 1.45312 2.90625 1.29688 2.875H0.828125ZM8.07031 3.69531V19.9609C9.27344 20.1797 10.4609 20.2891 11.6328 20.2891C13.8672 20.2891 15.7578 19.7188 17.3047 18.5781C18.8672 17.4219 19.6484 15.2891 19.6484 12.1797C19.6484 9.61719 18.9609 7.51562 17.5859 5.875C16.2266 4.21875 14.1562 3.39062 11.375 3.39062C10.2969 3.39062 9.19531 3.49219 8.07031 3.69531Z" fill="white"/>
<path d="M27.125 2.96875H26.6562V2.47656H38.6094C40.5312 2.47656 42.1562 2.77344 43.4844 3.36719C44.8281 3.96094 45.8672 4.71875 46.6016 5.64062C47.3516 6.54688 47.8828 7.50781 48.1953 8.52344C48.5234 9.53906 48.6875 10.5391 48.6875 11.5234C48.6875 12.7734 48.4219 13.9766 47.8906 15.1328C47.375 16.2734 46.5703 17.2578 45.4766 18.0859C44.3984 18.9141 43.0469 19.4766 41.4219 19.7734V19.8672C43.4844 20.8672 45.3906 22.8516 47.1406 25.8203L50.2578 31.0938C51.6641 33.4531 52.7891 34.9453 53.6328 35.5703C54.4922 36.1953 55.3359 36.5469 56.1641 36.625V37H49.8828C49.6172 36.6562 49.3672 36.3281 49.1328 36.0156C48.8984 35.6875 48.6484 35.3438 48.3828 34.9844C48.2266 34.75 47.9922 34.3984 47.6797 33.9297C47.3828 33.4453 47.2031 33.1719 47.1406 33.1094L43.0156 26.2891C42.1875 24.8984 41.3359 23.7734 40.4609 22.9141C39.6016 22.0391 38.7969 21.4141 38.0469 21.0391C37.2969 20.6641 36.6172 20.4297 36.0078 20.3359C35.4141 20.2422 34.7109 20.1953 33.8984 20.1953V32.8281C33.8984 35.2812 35.1484 36.5469 37.6484 36.625V37H26.6562V36.625C27.3438 36.5938 27.9531 36.4688 28.4844 36.25C29.0156 36.0156 29.4531 35.625 29.7969 35.0781C30.1562 34.5156 30.3359 33.7656 30.3359 32.8281V6.71875C30.3359 5.34375 30 4.375 29.3281 3.8125C28.6562 3.25 27.9219 2.96875 27.125 2.96875ZM33.8984 19.2812H35.8672C37.9297 19.2812 39.6172 18.9844 40.9297 18.3906C42.2578 17.7969 43.2188 16.9531 43.8125 15.8594C44.4062 14.75 44.7031 13.3984 44.7031 11.8047C44.7031 10.4766 44.4375 9.17969 43.9062 7.91406C43.375 6.63281 42.4688 5.5625 41.1875 4.70312C39.9219 3.82812 38.2109 3.39062 36.0547 3.39062C35.1797 3.39062 34.4609 3.46094 33.8984 3.60156V19.2812Z" fill="white"/>
<path d="M92.4453 19.7734C92.4453 23.0078 91.6406 26.0156 90.0312 28.7969C88.4375 31.5781 86.2578 33.7969 83.4922 35.4531C80.7266 37.0938 77.6641 37.9141 74.3047 37.9141C70.9297 37.9141 67.8359 37.0938 65.0234 35.4531C62.2109 33.7969 59.9922 31.5703 58.3672 28.7734C56.7578 25.9766 55.9531 22.9297 55.9531 19.6328C55.9531 17.1016 56.4297 14.7266 57.3828 12.5078C58.3516 10.2734 59.6953 8.32812 61.4141 6.67188C63.1484 5.01562 65.1172 3.73438 67.3203 2.82812C69.5391 1.92188 71.8516 1.46875 74.2578 1.46875C76.6172 1.46875 78.8828 1.90625 81.0547 2.78125C83.2266 3.64062 85.1719 4.89062 86.8906 6.53125C88.625 8.17188 89.9844 10.1172 90.9688 12.3672C91.9531 14.6172 92.4453 17.0859 92.4453 19.7734ZM88.3203 19.8672C88.3203 15.2734 87.5078 11.6797 85.8828 9.08594C84.2578 6.49219 82.3828 4.75781 80.2578 3.88281C78.1328 2.99219 76.1328 2.54688 74.2578 2.54688C72.8047 2.54688 71.2969 2.78906 69.7344 3.27344C68.1719 3.74219 66.6484 4.60938 65.1641 5.875C63.6953 7.14062 62.4844 8.92188 61.5312 11.2188C60.5781 13.5156 60.1016 16.3516 60.1016 19.7266C60.1016 22.6953 60.4922 25.2891 61.2734 27.5078C62.0703 29.7109 63.1562 31.5156 64.5312 32.9219C65.9219 34.3125 67.4453 35.3203 69.1016 35.9453C70.7734 36.5547 72.5078 36.8594 74.3047 36.8594C75.9141 36.8594 77.5391 36.5781 79.1797 36.0156C80.8359 35.4375 82.3438 34.5078 83.7031 33.2266C85.0781 31.9297 86.1875 30.1797 87.0312 27.9766C87.8906 25.7578 88.3203 23.0547 88.3203 19.8672Z" fill="white"/>
<path d="M96.7812 2.875V2.47656H110.07C111.93 2.47656 113.641 2.64062 115.203 2.96875C116.781 3.28125 118.188 3.70312 119.422 4.23438C120.672 4.76562 121.75 5.35156 122.656 5.99219C123.562 6.61719 124.328 7.25781 124.953 7.91406C126.047 9.00781 126.977 10.2266 127.742 11.5703C128.508 12.8984 129.078 14.3047 129.453 15.7891C129.844 17.2734 130.039 18.8047 130.039 20.3828C130.039 21.9609 129.852 23.4609 129.477 24.8828C129.102 26.3047 128.562 27.625 127.859 28.8438C127.156 30.0469 126.312 31.1406 125.328 32.125C124.359 33.1094 123.227 34 121.93 34.7969C120.82 35.4531 119.547 35.9844 118.109 36.3906C116.672 36.7969 114.727 37 112.273 37H96.7812V36.625H97.25C98.3281 36.625 99.1328 36.2188 99.6641 35.4062C100.195 34.5938 100.461 33.7344 100.461 32.8281V6.76562C100.461 5.89062 100.312 5.15625 100.016 4.5625C99.7344 3.96875 99.3516 3.53906 98.8672 3.27344C98.3828 3.00781 97.8438 2.875 97.25 2.875H96.7812ZM104.023 4.11719V31.4688C104.023 32.8125 104.234 33.8047 104.656 34.4453C105.094 35.0703 105.766 35.4766 106.672 35.6641C107.578 35.8516 108.906 35.9453 110.656 35.9453C113.156 35.9453 115.266 35.7031 116.984 35.2188C118.703 34.7188 120.367 33.6172 121.977 31.9141C123.164 30.6484 124.117 29.1016 124.836 27.2734C125.555 25.4453 125.914 23.2344 125.914 20.6406C125.914 18.5938 125.625 16.5703 125.047 14.5703C124.469 12.5547 123.586 10.7656 122.398 9.20312C121.07 7.4375 119.359 6.05469 117.266 5.05469C115.188 4.05469 112.68 3.55469 109.742 3.55469C108.227 3.55469 106.32 3.74219 104.023 4.11719Z" fill="white"/>
<path d="M168.312 37H161.07V31.2812L160.953 31.1875C159.953 33.5156 158.453 35.2188 156.453 36.2969C154.469 37.375 152.391 37.9141 150.219 37.9141C147.766 37.9141 145.555 37.3281 143.586 36.1562C141.633 34.9844 140.195 33.5391 139.273 31.8203C138.617 30.6016 138.203 29.3359 138.031 28.0234C137.859 26.6953 137.773 25.3203 137.773 23.8984V6.71875C137.773 5.6875 137.562 4.82031 137.141 4.11719C136.734 3.41406 135.75 3 134.188 2.875V2.47656H145.039V2.875C143.445 3.0625 142.43 3.52344 141.992 4.25781C141.555 4.99219 141.336 5.8125 141.336 6.71875V23.6172C141.336 27.0547 141.688 29.5938 142.391 31.2344C143.141 32.9844 144.266 34.3516 145.766 35.3359C147.266 36.3203 148.969 36.8125 150.875 36.8125C151.672 36.8125 152.617 36.6719 153.711 36.3906C154.805 36.1094 155.828 35.6406 156.781 34.9844C159.641 33.0312 161.07 29.8984 161.07 25.5859V6.71875C161.07 5.76562 160.852 4.92188 160.414 4.1875C159.977 3.45312 158.945 3.01562 157.32 2.875V2.47656H168.359V2.875C166.766 2.95312 165.742 3.39844 165.289 4.21094C164.836 5.02344 164.609 5.84375 164.609 6.67188V32.8281C164.609 33.7344 164.758 34.4531 165.055 34.9844C165.367 35.5 165.789 35.8672 166.32 36.0859C166.867 36.3047 167.531 36.4844 168.312 36.625V37Z" fill="white"/>
<path d="M202.883 10.2109H202.484C202.188 8.52344 201.391 7.09375 200.094 5.92188C198.812 4.75 197.336 3.89844 195.664 3.36719C193.992 2.82031 192.43 2.54688 190.977 2.54688C188.992 2.54688 187.125 2.96875 185.375 3.8125C183.641 4.64062 182.141 5.82031 180.875 7.35156C179.609 8.86719 178.625 10.6953 177.922 12.8359C177.219 14.9609 176.867 17.2734 176.867 19.7734C176.867 22.1953 177.203 24.4453 177.875 26.5234C178.562 28.5859 179.555 30.3828 180.852 31.9141C182.164 33.4297 183.68 34.5781 185.398 35.3594C187.117 36.1406 189.023 36.5312 191.117 36.5312C192.867 36.5312 194.789 36.1797 196.883 35.4766C198.977 34.7578 200.867 33.5703 202.555 31.9141V33.25C200.477 34.8594 198.57 36.0391 196.836 36.7891C195.117 37.5391 192.969 37.9141 190.391 37.9141C187.672 37.9141 185.188 37.4219 182.938 36.4375C180.703 35.4375 178.812 34.0938 177.266 32.4062C175.719 30.7188 174.547 28.8203 173.75 26.7109C172.953 24.6016 172.555 22.4297 172.555 20.1953C172.555 16.8359 173.383 13.7188 175.039 10.8438C176.695 7.95312 178.938 5.67188 181.766 4C184.594 2.3125 187.664 1.46875 190.977 1.46875C193.023 1.46875 195.203 1.77344 197.516 2.38281L199.953 3.0625C200.422 3.15625 200.82 3.20312 201.148 3.20312C201.758 3.20312 202.164 3.11719 202.367 2.94531C202.57 2.75781 202.727 2.42969 202.836 1.96094H203.211L202.883 10.2109Z" fill="white"/>
<path d="M235.742 9.20312H235.367C235.195 6.95312 234.539 5.5 233.398 4.84375C232.258 4.17188 230.852 3.83594 229.18 3.83594H222.312V32.8281C222.312 35.2812 223.562 36.5469 226.062 36.625V37H215.07V36.625C216.102 36.5938 216.969 36.2969 217.672 35.7344C218.391 35.1562 218.75 34.1875 218.75 32.8281V3.83594H211.883C210.211 3.83594 208.805 4.17188 207.664 4.84375C206.539 5.5 205.883 6.95312 205.695 9.20312H205.32V0.765625H205.695C205.945 1.15625 206.164 1.44531 206.352 1.63281C206.539 1.82031 206.781 1.98438 207.078 2.125C207.375 2.25 207.719 2.34375 208.109 2.40625C208.516 2.45312 208.992 2.47656 209.539 2.47656H231.898C233.383 2.47656 234.539 1.90625 235.367 0.765625H235.742V9.20312Z" fill="white"/>
<path d="M256.039 9.10938H255.664C255.445 7.4375 254.711 5.97656 253.461 4.72656C252.227 3.46094 250.594 2.82812 248.562 2.82812C247.234 2.82812 246.055 3.14062 245.023 3.76562C243.992 4.39062 243.195 5.24219 242.633 6.32031C242.07 7.39844 241.789 8.63281 241.789 10.0234C241.789 11.1016 241.953 12.0625 242.281 12.9062C242.625 13.7344 243.125 14.4688 243.781 15.1094C244.438 15.75 245.211 16.3516 246.102 16.9141C246.992 17.4609 248.195 18.1562 249.711 19C252.242 20.3906 254.211 21.7812 255.617 23.1719C257.023 24.5469 257.727 26.4375 257.727 28.8438C257.727 30.3125 257.344 31.7344 256.578 33.1094C255.828 34.4688 254.688 35.5859 253.156 36.4609C251.625 37.3359 249.727 37.7734 247.461 37.7734C246.039 37.7734 244.781 37.6172 243.688 37.3047C242.594 37.0078 241.484 36.5859 240.359 36.0391C239.891 35.8828 239.57 35.8047 239.398 35.8047C239.07 35.8047 238.852 35.9219 238.742 36.1562C238.648 36.3906 238.516 36.8984 238.344 37.6797H237.945V29.0312H238.344C238.906 31.5625 240 33.4766 241.625 34.7734C243.25 36.0703 245.227 36.7188 247.555 36.7188C249.305 36.7188 250.703 36.3906 251.75 35.7344C252.812 35.0781 253.547 34.2812 253.953 33.3438C254.359 32.4062 254.562 31.4688 254.562 30.5312C254.562 28.5938 253.969 27.0156 252.781 25.7969C251.609 24.5625 249.82 23.3047 247.414 22.0234C245.758 21.1172 244.531 20.4141 243.734 19.9141C242.938 19.4141 242.125 18.7656 241.297 17.9688C240.484 17.1719 239.836 16.2344 239.352 15.1562C238.867 14.0625 238.625 12.8125 238.625 11.4062C238.625 9.78125 239.055 8.22656 239.914 6.74219C240.773 5.25781 241.992 4.07031 243.57 3.17969C245.148 2.27344 246.938 1.82031 248.938 1.82031C250.453 1.82031 252.008 2.07812 253.602 2.59375C253.852 2.71875 254.188 2.78125 254.609 2.78125C255.125 2.78125 255.477 2.42969 255.664 1.72656H256.039V9.10938Z" fill="white"/>
</svg>
